<svg width="30" height="16" viewBox="0 0 30 16" fill="none" xmlns="http://www.w3.org/2000/svg">
<path d="M8.02045 8.53407C7.99215 8.58439 7.95059 8.62677 7.89987 8.65702C7.84916 8.68727 7.79105 8.70434 7.73131 8.70654C7.52962 8.70945 7.20125 8.46492 7.14434 8.42201C7.08743 8.3791 6.59334 7.88441 6.21439 7.73465C6.01033 7.65145 5.7891 7.61383 5.56753 7.62466C5.34595 7.63549 5.12991 7.69448 4.93581 7.79714C4.93581 7.79714 4.0523 8.22059 3.53009 9.71592C3.00788 11.2112 2.99981 12.4225 3.56214 12.8595C4.12447 13.2965 4.78317 12.9588 5.22362 12.7828C5.66406 12.6068 6.40344 12.1848 6.65223 12.1619C6.90101 12.139 7.0615 12.2002 6.9732 12.6143C6.74033 13.3859 6.44237 14.1382 6.08226 14.8639C5.69606 15.1407 5.26216 15.3509 4.80017 15.485C4.14408 15.6676 3.45038 15.6891 2.78328 15.5475C2.04302 15.3576 1.37997 14.9588 0.880873 14.4031C0.262724 13.7668 -0.106643 12.4604 0.054272 10.9117C0.215187 9.36308 1.16979 7.63779 2.26152 6.58738C3.35326 5.53696 4.33291 5.18432 5.29535 5.146C5.85266 5.14804 6.40209 5.27193 6.90154 5.50816C7.40099 5.74439 7.83719 6.08669 8.17676 6.50885C8.2069 6.55289 8.22902 6.60148 8.24219 6.65257C8.24219 6.65257 8.30935 8.17831 8.02045 8.53407Z" fill="#7F7F7F"/>
<path d="M12.9265 5.43213L10.2227 15.6324H8.5438C8.5438 15.6324 7.76737 15.6611 7.55631 15.3966C7.34524 15.1321 7.38776 14.89 7.51422 14.3156C7.64069 13.7411 9.42252 6.96766 9.42252 6.96766C9.42252 6.96766 9.66934 6.0243 9.90417 5.7831C10.139 5.5419 10.4344 5.43234 10.9695 5.43234L12.9265 5.43213Z" fill="#7F7F7F"/>
<path d="M12.4388 0.887537C12.4388 0.887537 13.2996 0.853161 13.745 1.30735C13.9086 1.47039 14.0087 1.68212 14.0285 1.90717C14.0483 2.13222 13.9868 2.35696 13.8541 2.54385C13.6796 2.79699 13.2161 3.49868 11.7827 3.49868C10.3493 3.49868 10.332 2.61302 10.332 2.46343C10.3487 2.13603 10.4925 1.82634 10.7354 1.59486C10.9477 1.36489 11.2104 1.18233 11.5047 1.0601C11.7991 0.937873 12.1179 0.878961 12.4388 0.887537Z" fill="#7F7F7F"/>
<path d="M14.9722 5.4323H13.6057L13.0279 7.65769H14.3944L12.2576 15.6338H14.4247C14.4247 15.6338 15.3516 15.6673 15.6767 14.4945C16.0018 13.3216 17.4825 7.66394 17.4825 7.66394H18.7105C18.8781 7.66761 19.0445 7.63626 19.1981 7.57208C19.298 7.52152 19.3837 7.44854 19.4476 7.3594C19.5116 7.27026 19.552 7.16763 19.5653 7.06031C19.6675 6.67497 19.8718 5.92116 19.8718 5.92116C19.8901 5.86331 19.8931 5.80203 19.8805 5.74282C19.8679 5.6836 19.8401 5.62829 19.7997 5.58185C19.6718 5.4793 19.5085 5.42598 19.3418 5.4323H18.1338L19.1213 1.81531C19.1814 1.62898 19.1663 1.42791 19.079 1.25167C18.9286 1.01588 18.6571 0.906738 18.1938 0.906738C17.7305 0.936883 17.2763 1.04395 16.8515 1.22313C16.5173 1.3463 16.2197 1.54566 15.9846 1.80385L14.9722 5.4323Z" fill="#7F7F7F"/>
<path d="M17.1582 12.6745V14.4254C17.3013 14.418 17.4392 14.3714 17.5555 14.2913C17.828 14.1417 19.3172 12.9928 19.5298 12.897C19.7424 12.8012 20.2679 12.5221 20.7177 12.9736C21.1676 13.4252 21.6246 14.0805 21.8734 14.345C22.1221 14.6096 22.1583 14.6287 22.3068 14.7897C22.6073 15.1096 22.9972 15.3409 23.4306 15.4563C24.4626 15.7111 25.5499 15.6749 26.5608 15.3521C27.9655 14.9266 28.3586 14.7312 28.7519 14.225C29.1453 13.7189 29.0049 12.8149 28.9288 12.6926C28.884 12.6221 28.8527 12.5445 28.8365 12.4635C28.6869 12.4743 28.5409 12.5133 28.4072 12.5785C28.1905 12.6858 27.8896 12.8162 27.6286 12.9428C27.2058 13.0987 26.7728 13.228 26.3323 13.33C26.0891 13.3623 25.8418 13.3532 25.6019 13.3031C25.4261 13.2247 25.2741 13.1047 25.1603 12.9545C24.9829 12.6964 24.8234 12.4274 24.6828 12.1494C24.526 11.8483 24.4074 11.5305 24.3294 11.2025C24.2852 10.8877 24.1536 10.5899 23.9482 10.34C23.5854 10.1223 23.1923 9.95462 22.7804 9.84176C22.4526 9.72723 22.0929 9.72723 21.765 9.84176C21.6444 9.89924 21.3036 10.0292 21.1109 10.1369C20.9181 10.2446 19.7344 10.942 19.0482 11.3752C18.362 11.8084 17.7238 12.2186 17.5232 12.3683C17.3862 12.4524 17.2631 12.5556 17.1582 12.6745Z" fill="#7F7F7F"/>
<path d="M24.0387 4.73093C24.0387 4.73093 22.8831 5.11053 22.275 5.55909C21.6668 6.00765 21.6247 6.0364 21.5646 6.47371C21.5044 6.91102 21.6607 7.42854 22.2268 7.57792C22.7698 7.68985 23.3308 7.69573 23.8763 7.59521C24.45 7.47415 24.9951 7.25178 25.4834 6.93956C25.7332 6.71902 25.9373 6.45563 26.0852 6.16307C26.1393 6.08828 26.2025 5.85827 26.3251 5.61951C26.4737 5.4008 26.5655 5.1514 26.593 4.89198C26.59 4.62739 26.5329 4.32258 25.8497 4.32571C25.2261 4.35968 24.6133 4.49679 24.0387 4.73093Z" fill="#7F7F7F"/>
</svg>
