<svg width="98.72" height="85" viewBox="0 0 194 85" fill="none" xmlns="http://www.w3.org/2000/svg">
<g filter="url(#filter0_i_579_25)">
<path d="M26.5576 75.0717C25.9882 75.0717 25.5529 74.921 25.2515 74.6196C24.95 74.3517 24.7156 74.1172 24.5482 73.9163L22.9909 71.9069C21.8857 72.1748 20.6633 72.3088 19.3237 72.3088C16.1421 72.3088 13.3624 71.8064 10.9846 70.8017C8.60679 69.797 6.74808 68.2899 5.40847 66.2805C4.06886 64.2376 3.33207 61.7091 3.19811 58.695C3.16462 57.2884 3.14788 55.8483 3.14788 54.3747C3.14788 52.8676 3.16462 51.3773 3.19811 49.9038C3.33207 46.9231 4.06886 44.4114 5.40847 42.3685C6.74808 40.3255 8.60679 38.785 10.9846 37.7468C13.3624 36.6751 16.1421 36.1393 19.3237 36.1393C22.4718 36.1393 25.2347 36.6751 27.6125 37.7468C29.9903 38.785 31.8658 40.3255 33.2389 42.3685C34.612 44.4114 35.3488 46.9231 35.4492 49.9038C35.5162 51.3773 35.5497 52.8676 35.5497 54.3747C35.5497 55.8483 35.5162 57.2884 35.4492 58.695C35.2483 62.6468 34.0259 65.7614 31.7821 68.0387L35.6502 73.5144C35.6837 73.5479 35.7172 73.6149 35.7507 73.7153C35.7841 73.8158 35.8009 73.8995 35.8009 73.9665C35.8344 74.2679 35.7339 74.5191 35.4995 74.72C35.2985 74.9545 35.0641 75.0717 34.7962 75.0717H26.5576ZM19.3237 63.7687C20.7638 63.7687 21.9192 63.3501 22.7899 62.5128C23.6942 61.6421 24.163 60.269 24.1965 58.3935C24.2635 56.9535 24.297 55.5636 24.297 54.224C24.297 52.8509 24.2635 51.4611 24.1965 50.0545C24.163 48.8153 23.9286 47.7939 23.4932 46.9901C23.0913 46.1863 22.522 45.6003 21.7852 45.2319C21.0819 44.8635 20.2614 44.6793 19.3237 44.6793C18.3859 44.6793 17.5487 44.8635 16.8119 45.2319C16.1086 45.6003 15.5393 46.1863 15.1039 46.9901C14.6685 47.7939 14.4341 48.8153 14.4006 50.0545C14.3671 51.4611 14.3504 52.8509 14.3504 54.224C14.3504 55.5636 14.3671 56.9535 14.4006 58.3935C14.4676 60.269 14.9365 61.6421 15.8072 62.5128C16.7114 63.3501 17.8836 63.7687 19.3237 63.7687ZM60.6454 72.3088C57.5308 72.3088 54.7846 71.8231 52.4068 70.8519C50.0625 69.8807 48.2205 68.3736 46.8809 66.3307C45.5748 64.2543 44.9218 61.6421 44.9218 58.494V37.9477C44.9218 37.5793 45.0557 37.2779 45.3236 37.0435C45.5916 36.7756 45.893 36.6416 46.2279 36.6416H54.4162C54.7846 36.6416 55.086 36.7756 55.3205 37.0435C55.5884 37.2779 55.7224 37.5793 55.7224 37.9477V58.3433C55.7224 60.0513 56.141 61.3407 56.9782 62.2114C57.8155 63.0822 59.0212 63.5176 60.5952 63.5176C62.1692 63.5176 63.3581 63.0822 64.1619 62.2114C64.9992 61.3407 65.4178 60.0513 65.4178 58.3433V37.9477C65.4178 37.5793 65.5518 37.2779 65.8197 37.0435C66.0876 36.7756 66.4058 36.6416 66.7742 36.6416H74.9123C75.2807 36.6416 75.5821 36.7756 75.8165 37.0435C76.0844 37.2779 76.2184 37.5793 76.2184 37.9477V58.494C76.2184 61.6421 75.5653 64.2543 74.2592 66.3307C72.9531 68.3736 71.1279 69.8807 68.7836 70.8519C66.4393 71.8231 63.7265 72.3088 60.6454 72.3088ZM88.0402 71.8064C87.7053 71.8064 87.4039 71.6892 87.136 71.4547C86.868 71.1868 86.7341 70.8687 86.7341 70.5003V37.9477C86.7341 37.5793 86.868 37.2779 87.136 37.0435C87.4039 36.7756 87.7053 36.6416 88.0402 36.6416H112.656C113.024 36.6416 113.342 36.7756 113.61 37.0435C113.878 37.2779 114.012 37.5793 114.012 37.9477V43.8755C114.012 44.2104 113.878 44.5118 113.61 44.7797C113.342 45.0477 113.024 45.1816 112.656 45.1816H97.1328V50.1549H111.55C111.919 50.1549 112.237 50.2889 112.505 50.5568C112.773 50.7913 112.907 51.0927 112.907 51.4611V56.8865C112.907 57.2549 112.773 57.573 112.505 57.841C112.237 58.0754 111.919 58.1926 111.55 58.1926H97.1328V63.2664H113.057C113.426 63.2664 113.744 63.4003 114.012 63.6683C114.28 63.9362 114.414 64.2543 114.414 64.6227V70.5003C114.414 70.8687 114.28 71.1868 114.012 71.4547C113.744 71.6892 113.426 71.8064 113.057 71.8064H88.0402ZM125.381 71.8064C125.046 71.8064 124.745 71.6892 124.477 71.4547C124.209 71.1868 124.075 70.8687 124.075 70.5003V37.9477C124.075 37.5793 124.209 37.2779 124.477 37.0435C124.745 36.7756 125.046 36.6416 125.381 36.6416H149.997C150.365 36.6416 150.683 36.7756 150.951 37.0435C151.219 37.2779 151.353 37.5793 151.353 37.9477V43.8755C151.353 44.2104 151.219 44.5118 150.951 44.7797C150.683 45.0477 150.365 45.1816 149.997 45.1816H134.474V50.1549H148.891C149.26 50.1549 149.578 50.2889 149.846 50.5568C150.114 50.7913 150.248 51.0927 150.248 51.4611V56.8865C150.248 57.2549 150.114 57.573 149.846 57.841C149.578 58.0754 149.26 58.1926 148.891 58.1926H134.474V63.2664H150.398C150.767 63.2664 151.085 63.4003 151.353 63.6683C151.621 63.9362 151.755 64.2543 151.755 64.6227V70.5003C151.755 70.8687 151.621 71.1868 151.353 71.4547C151.085 71.6892 150.767 71.8064 150.398 71.8064H125.381ZM162.722 71.8064C162.387 71.8064 162.086 71.6892 161.818 71.4547C161.55 71.1868 161.416 70.8687 161.416 70.5003V37.9477C161.416 37.5793 161.55 37.2779 161.818 37.0435C162.086 36.7756 162.387 36.6416 162.722 36.6416H177.039C181.594 36.6416 185.161 37.6798 187.739 39.7562C190.352 41.8326 191.658 44.7295 191.658 48.4469C191.658 50.7913 191.122 52.7839 190.05 54.4249C188.979 56.066 187.572 57.3553 185.83 58.2931L192.361 70.1486C192.462 70.3496 192.512 70.5338 192.512 70.7012C192.512 71.0026 192.411 71.2706 192.21 71.505C192.009 71.7059 191.758 71.8064 191.457 71.8064H182.967C182.331 71.8064 181.845 71.6557 181.51 71.3543C181.175 71.0194 180.958 70.718 180.857 70.45L175.834 60.1015H172.217V70.5003C172.217 70.8687 172.083 71.1868 171.815 71.4547C171.58 71.6892 171.279 71.8064 170.911 71.8064H162.722ZM172.217 51.8127H176.989C178.161 51.8127 179.032 51.4945 179.601 50.8582C180.171 50.1884 180.455 49.3679 180.455 48.3967C180.455 47.392 180.171 46.538 179.601 45.8347C179.065 45.1314 178.195 44.7797 176.989 44.7797H172.217V51.8127Z" fill="url(#paint0_linear_579_25)"/>
<path d="M26.5576 75.0717C25.9882 75.0717 25.5529 74.921 25.2515 74.6196C24.95 74.3517 24.7156 74.1172 24.5482 73.9163L22.9909 71.9069C21.8857 72.1748 20.6633 72.3088 19.3237 72.3088C16.1421 72.3088 13.3624 71.8064 10.9846 70.8017C8.60679 69.797 6.74808 68.2899 5.40847 66.2805C4.06886 64.2376 3.33207 61.7091 3.19811 58.695C3.16462 57.2884 3.14788 55.8483 3.14788 54.3747C3.14788 52.8676 3.16462 51.3773 3.19811 49.9038C3.33207 46.9231 4.06886 44.4114 5.40847 42.3685C6.74808 40.3255 8.60679 38.785 10.9846 37.7468C13.3624 36.6751 16.1421 36.1393 19.3237 36.1393C22.4718 36.1393 25.2347 36.6751 27.6125 37.7468C29.9903 38.785 31.8658 40.3255 33.2389 42.3685C34.612 44.4114 35.3488 46.9231 35.4492 49.9038C35.5162 51.3773 35.5497 52.8676 35.5497 54.3747C35.5497 55.8483 35.5162 57.2884 35.4492 58.695C35.2483 62.6468 34.0259 65.7614 31.7821 68.0387L35.6502 73.5144C35.6837 73.5479 35.7172 73.6149 35.7507 73.7153C35.7841 73.8158 35.8009 73.8995 35.8009 73.9665C35.8344 74.2679 35.7339 74.5191 35.4995 74.72C35.2985 74.9545 35.0641 75.0717 34.7962 75.0717H26.5576ZM19.3237 63.7687C20.7638 63.7687 21.9192 63.3501 22.7899 62.5128C23.6942 61.6421 24.163 60.269 24.1965 58.3935C24.2635 56.9535 24.297 55.5636 24.297 54.224C24.297 52.8509 24.2635 51.4611 24.1965 50.0545C24.163 48.8153 23.9286 47.7939 23.4932 46.9901C23.0913 46.1863 22.522 45.6003 21.7852 45.2319C21.0819 44.8635 20.2614 44.6793 19.3237 44.6793C18.3859 44.6793 17.5487 44.8635 16.8119 45.2319C16.1086 45.6003 15.5393 46.1863 15.1039 46.9901C14.6685 47.7939 14.4341 48.8153 14.4006 50.0545C14.3671 51.4611 14.3504 52.8509 14.3504 54.224C14.3504 55.5636 14.3671 56.9535 14.4006 58.3935C14.4676 60.269 14.9365 61.6421 15.8072 62.5128C16.7114 63.3501 17.8836 63.7687 19.3237 63.7687ZM60.6454 72.3088C57.5308 72.3088 54.7846 71.8231 52.4068 70.8519C50.0625 69.8807 48.2205 68.3736 46.8809 66.3307C45.5748 64.2543 44.9218 61.6421 44.9218 58.494V37.9477C44.9218 37.5793 45.0557 37.2779 45.3236 37.0435C45.5916 36.7756 45.893 36.6416 46.2279 36.6416H54.4162C54.7846 36.6416 55.086 36.7756 55.3205 37.0435C55.5884 37.2779 55.7224 37.5793 55.7224 37.9477V58.3433C55.7224 60.0513 56.141 61.3407 56.9782 62.2114C57.8155 63.0822 59.0212 63.5176 60.5952 63.5176C62.1692 63.5176 63.3581 63.0822 64.1619 62.2114C64.9992 61.3407 65.4178 60.0513 65.4178 58.3433V37.9477C65.4178 37.5793 65.5518 37.2779 65.8197 37.0435C66.0876 36.7756 66.4058 36.6416 66.7742 36.6416H74.9123C75.2807 36.6416 75.5821 36.7756 75.8165 37.0435C76.0844 37.2779 76.2184 37.5793 76.2184 37.9477V58.494C76.2184 61.6421 75.5653 64.2543 74.2592 66.3307C72.9531 68.3736 71.1279 69.8807 68.7836 70.8519C66.4393 71.8231 63.7265 72.3088 60.6454 72.3088ZM88.0402 71.8064C87.7053 71.8064 87.4039 71.6892 87.136 71.4547C86.868 71.1868 86.7341 70.8687 86.7341 70.5003V37.9477C86.7341 37.5793 86.868 37.2779 87.136 37.0435C87.4039 36.7756 87.7053 36.6416 88.0402 36.6416H112.656C113.024 36.6416 113.342 36.7756 113.61 37.0435C113.878 37.2779 114.012 37.5793 114.012 37.9477V43.8755C114.012 44.2104 113.878 44.5118 113.61 44.7797C113.342 45.0477 113.024 45.1816 112.656 45.1816H97.1328V50.1549H111.55C111.919 50.1549 112.237 50.2889 112.505 50.5568C112.773 50.7913 112.907 51.0927 112.907 51.4611V56.8865C112.907 57.2549 112.773 57.573 112.505 57.841C112.237 58.0754 111.919 58.1926 111.55 58.1926H97.1328V63.2664H113.057C113.426 63.2664 113.744 63.4003 114.012 63.6683C114.28 63.9362 114.414 64.2543 114.414 64.6227V70.5003C114.414 70.8687 114.28 71.1868 114.012 71.4547C113.744 71.6892 113.426 71.8064 113.057 71.8064H88.0402ZM125.381 71.8064C125.046 71.8064 124.745 71.6892 124.477 71.4547C124.209 71.1868 124.075 70.8687 124.075 70.5003V37.9477C124.075 37.5793 124.209 37.2779 124.477 37.0435C124.745 36.7756 125.046 36.6416 125.381 36.6416H149.997C150.365 36.6416 150.683 36.7756 150.951 37.0435C151.219 37.2779 151.353 37.5793 151.353 37.9477V43.8755C151.353 44.2104 151.219 44.5118 150.951 44.7797C150.683 45.0477 150.365 45.1816 149.997 45.1816H134.474V50.1549H148.891C149.26 50.1549 149.578 50.2889 149.846 50.5568C150.114 50.7913 150.248 51.0927 150.248 51.4611V56.8865C150.248 57.2549 150.114 57.573 149.846 57.841C149.578 58.0754 149.26 58.1926 148.891 58.1926H134.474V63.2664H150.398C150.767 63.2664 151.085 63.4003 151.353 63.6683C151.621 63.9362 151.755 64.2543 151.755 64.6227V70.5003C151.755 70.8687 151.621 71.1868 151.353 71.4547C151.085 71.6892 150.767 71.8064 150.398 71.8064H125.381ZM162.722 71.8064C162.387 71.8064 162.086 71.6892 161.818 71.4547C161.55 71.1868 161.416 70.8687 161.416 70.5003V37.9477C161.416 37.5793 161.55 37.2779 161.818 37.0435C162.086 36.7756 162.387 36.6416 162.722 36.6416H177.039C181.594 36.6416 185.161 37.6798 187.739 39.7562C190.352 41.8326 191.658 44.7295 191.658 48.4469C191.658 50.7913 191.122 52.7839 190.05 54.4249C188.979 56.066 187.572 57.3553 185.83 58.2931L192.361 70.1486C192.462 70.3496 192.512 70.5338 192.512 70.7012C192.512 71.0026 192.411 71.2706 192.21 71.505C192.009 71.7059 191.758 71.8064 191.457 71.8064H182.967C182.331 71.8064 181.845 71.6557 181.51 71.3543C181.175 71.0194 180.958 70.718 180.857 70.45L175.834 60.1015H172.217V70.5003C172.217 70.8687 172.083 71.1868 171.815 71.4547C171.58 71.6892 171.279 71.8064 170.911 71.8064H162.722ZM172.217 51.8127H176.989C178.161 51.8127 179.032 51.4945 179.601 50.8582C180.171 50.1884 180.455 49.3679 180.455 48.3967C180.455 47.392 180.171 46.538 179.601 45.8347C179.065 45.1314 178.195 44.7797 176.989 44.7797H172.217V51.8127Z" fill="url(#paint1_linear_579_25)" fill-opacity="0.77"/>
</g>
<path d="M15.3051 32.3678C13.1775 32.3678 11.3522 32.0207 9.8293 31.3264C8.32879 30.6321 7.15301 29.6131 6.30198 28.2694C5.47333 26.9256 5.01422 25.2572 4.92464 23.2639C4.90224 22.3457 4.89105 21.3603 4.89105 20.3077C4.89105 19.2551 4.90224 18.2473 4.92464 17.2843C5.01422 15.3359 5.48453 13.6898 6.33557 12.346C7.18661 10.9799 8.37358 9.94969 9.89649 9.25543C11.4194 8.53876 13.2222 8.18043 15.3051 8.18043C16.7832 8.18043 18.1493 8.3708 19.4035 8.75152C20.6576 9.10985 21.755 9.64735 22.6956 10.364C23.6363 11.0583 24.3641 11.9093 24.8792 12.9171C25.4167 13.9025 25.6967 15.0223 25.7191 16.2765C25.7415 16.478 25.6743 16.646 25.5175 16.7804C25.3831 16.9148 25.2152 16.9819 25.0136 16.9819H20.4785C20.1873 16.9819 19.9634 16.926 19.8066 16.814C19.6498 16.6796 19.5154 16.4444 19.4035 16.1085C19.0899 14.9215 18.5748 14.1153 17.8582 13.6898C17.1639 13.2419 16.3017 13.0179 15.2715 13.0179C14.0397 13.0179 13.0655 13.365 12.3488 14.0593C11.6322 14.7312 11.2402 15.8622 11.173 17.4523C11.1059 19.2887 11.1059 21.1699 11.173 23.096C11.2402 24.6861 11.6322 25.8282 12.3488 26.5225C13.0655 27.1944 14.0397 27.5303 15.2715 27.5303C16.3017 27.5303 17.1751 27.3064 17.8918 26.8585C18.6084 26.4105 19.1123 25.6043 19.4035 24.4397C19.493 24.1038 19.6162 23.8798 19.773 23.7678C19.9522 23.6335 20.1873 23.5663 20.4785 23.5663H25.0136C25.2152 23.5663 25.3831 23.6335 25.5175 23.7678C25.6743 23.9022 25.7415 24.0702 25.7191 24.2717C25.6967 25.5259 25.4167 26.6569 24.8792 27.6647C24.3641 28.6501 23.6363 29.5011 22.6956 30.2178C21.755 30.9121 20.6576 31.4496 19.4035 31.8303C18.1493 32.1886 16.7832 32.3678 15.3051 32.3678ZM42.7224 32.3678C40.662 32.3678 38.8703 32.0319 37.3474 31.36C35.8245 30.6881 34.6375 29.6803 33.7865 28.3366C32.9355 26.9704 32.4651 25.2684 32.3756 23.2303C32.3532 22.2673 32.342 21.3043 32.342 20.3413C32.342 19.3783 32.3532 18.4041 32.3756 17.4187C32.4651 15.403 32.9355 13.7122 33.7865 12.346C34.6599 10.9575 35.8581 9.9161 37.381 9.22183C38.9039 8.52757 40.6844 8.18043 42.7224 8.18043C44.738 8.18043 46.5073 8.52757 48.0302 9.22183C49.5755 9.9161 50.7848 10.9575 51.6583 12.346C52.5317 13.7122 53.002 15.403 53.0692 17.4187C53.114 18.4041 53.1364 19.3783 53.1364 20.3413C53.1364 21.3043 53.114 22.2673 53.0692 23.2303C52.9796 25.2684 52.5093 26.9704 51.6583 28.3366C50.8072 29.6803 49.6203 30.6881 48.0974 31.36C46.5744 32.0319 44.7828 32.3678 42.7224 32.3678ZM42.7224 27.5303C43.9094 27.5303 44.8724 27.172 45.6114 26.4553C46.3729 25.7387 46.776 24.5965 46.8208 23.0288C46.8656 22.0434 46.888 21.114 46.888 20.2405C46.888 19.3671 46.8656 18.4601 46.8208 17.5194C46.776 16.4668 46.5744 15.6158 46.2161 14.9663C45.8802 14.2945 45.4099 13.8018 44.8052 13.4882C44.2005 13.1747 43.5062 13.0179 42.7224 13.0179C41.9609 13.0179 41.2779 13.1747 40.6732 13.4882C40.0685 13.8018 39.587 14.2945 39.2287 14.9663C38.8703 15.6158 38.6688 16.4668 38.624 17.5194C38.6016 18.4601 38.5904 19.3671 38.5904 20.2405C38.5904 21.114 38.6016 22.0434 38.624 23.0288C38.6912 24.5965 39.0943 25.7387 39.8333 26.4553C40.5724 27.172 41.5354 27.5303 42.7224 27.5303ZM61.7334 32.0319C61.4871 32.0319 61.2855 31.9535 61.1288 31.7967C60.972 31.6399 60.8936 31.4384 60.8936 31.192V9.35621C60.8936 9.10985 60.972 8.90829 61.1288 8.75152C61.2855 8.59475 61.4871 8.51637 61.7334 8.51637H65.2944C65.6751 8.51637 65.9438 8.60595 66.1006 8.78512C66.2798 8.94189 66.3918 9.06506 66.4365 9.15464L74.6334 22.0882V9.35621C74.6334 9.10985 74.7118 8.90829 74.8685 8.75152C75.0253 8.59475 75.2269 8.51637 75.4732 8.51637H79.5044C79.7508 8.51637 79.9524 8.59475 80.1091 8.75152C80.2659 8.90829 80.3443 9.10985 80.3443 9.35621V31.192C80.3443 31.416 80.2659 31.6175 80.1091 31.7967C79.9524 31.9535 79.7508 32.0319 79.5044 32.0319H75.9099C75.5516 32.0319 75.2829 31.9423 75.1037 31.7631C74.9469 31.5839 74.8461 31.4608 74.8013 31.3936L66.6045 18.964V31.192C66.6045 31.4384 66.5261 31.6399 66.3694 31.7967C66.2126 31.9535 66.011 32.0319 65.7647 32.0319H61.7334ZM89.7421 32.0319C89.4957 32.0319 89.2942 31.9535 89.1374 31.7967C88.9806 31.6399 88.9022 31.4384 88.9022 31.192V9.35621C88.9022 9.10985 88.9806 8.90829 89.1374 8.75152C89.2942 8.59475 89.4957 8.51637 89.7421 8.51637H94.0756C94.322 8.51637 94.5236 8.59475 94.6803 8.75152C94.8371 8.90829 94.9155 9.10985 94.9155 9.35621V17.4523H103.213V9.35621C103.213 9.10985 103.291 8.90829 103.448 8.75152C103.605 8.59475 103.807 8.51637 104.053 8.51637H108.387C108.633 8.51637 108.834 8.59475 108.991 8.75152C109.148 8.90829 109.226 9.10985 109.226 9.35621V31.192C109.226 31.4384 109.148 31.6399 108.991 31.7967C108.834 31.9535 108.633 32.0319 108.387 32.0319H104.053C103.807 32.0319 103.605 31.9535 103.448 31.7967C103.291 31.6399 103.213 31.4384 103.213 31.192V22.8272H94.9155V31.192C94.9155 31.4384 94.8371 31.6399 94.6803 31.7967C94.5236 31.9535 94.322 32.0319 94.0756 32.0319H89.7421ZM118.636 32.0319C118.39 32.0319 118.189 31.9535 118.032 31.7967C117.875 31.6399 117.797 31.4384 117.797 31.192V9.35621C117.797 9.10985 117.875 8.90829 118.032 8.75152C118.189 8.59475 118.39 8.51637 118.636 8.51637H134.325C134.571 8.51637 134.773 8.59475 134.929 8.75152C135.086 8.90829 135.165 9.10985 135.165 9.35621V12.514C135.165 12.7604 135.086 12.9619 134.929 13.1187C134.773 13.2755 134.571 13.3538 134.325 13.3538H123.608V17.889H133.586C133.832 17.889 134.034 17.9786 134.19 18.1577C134.347 18.3145 134.425 18.5161 134.425 18.7624V21.685C134.425 21.909 134.347 22.1106 134.19 22.2897C134.034 22.4465 133.832 22.5249 133.586 22.5249H123.608V27.1944H134.593C134.84 27.1944 135.041 27.2728 135.198 27.4295C135.355 27.5863 135.433 27.7879 135.433 28.0342V31.192C135.433 31.4384 135.355 31.6399 135.198 31.7967C135.041 31.9535 134.84 32.0319 134.593 32.0319H118.636ZM152.392 39.4224C151.787 39.4224 151.238 39.3217 150.746 39.1201C150.253 38.9185 149.906 38.6834 149.704 38.4146C149.503 38.1459 149.514 37.9107 149.738 37.7092L150.342 37.1717C150.544 36.9925 150.712 36.9365 150.846 37.0037C151.003 37.0709 151.194 37.1605 151.417 37.2725C151.641 37.4068 151.966 37.474 152.392 37.474C152.728 37.474 152.996 37.3732 153.198 37.1717C153.4 36.9701 153.5 36.735 153.5 36.4662C153.5 36.1751 153.4 35.9287 153.198 35.7272C152.996 35.548 152.728 35.4584 152.392 35.4584C152.123 35.4584 151.877 35.492 151.653 35.5592C151.429 35.6488 151.216 35.6936 151.014 35.6936C150.835 35.716 150.656 35.66 150.477 35.5256L149.839 34.8537C149.704 34.7193 149.637 34.5738 149.637 34.417C149.659 34.2602 149.738 34.0475 149.872 33.7787L150.544 32.2334C148.842 32.0319 147.375 31.5616 146.143 30.8225C144.934 30.0834 143.993 29.0868 143.321 27.8327C142.65 26.5561 142.269 25.0332 142.179 23.2639C142.157 22.3457 142.146 21.3603 142.146 20.3077C142.146 19.2551 142.157 18.2473 142.179 17.2843C142.269 15.3359 142.739 13.6898 143.59 12.346C144.441 10.9799 145.628 9.94969 147.151 9.25543C148.674 8.53876 150.477 8.18043 152.56 8.18043C154.038 8.18043 155.404 8.3708 156.658 8.75152C157.912 9.10985 159.01 9.64735 159.95 10.364C160.891 11.0583 161.619 11.9093 162.134 12.9171C162.671 13.9025 162.951 15.0223 162.974 16.2765C162.996 16.478 162.929 16.646 162.772 16.7804C162.638 16.9148 162.47 16.9819 162.268 16.9819H157.733C157.442 16.9819 157.218 16.926 157.061 16.814C156.904 16.6796 156.77 16.4444 156.658 16.1085C156.345 14.9215 155.829 14.1153 155.113 13.6898C154.419 13.2419 153.556 13.0179 152.526 13.0179C151.294 13.0179 150.32 13.365 149.603 14.0593C148.887 14.7312 148.495 15.8622 148.428 17.4523C148.36 19.2887 148.36 21.1699 148.428 23.096C148.495 24.6861 148.887 25.8282 149.603 26.5225C150.32 27.1944 151.294 27.5303 152.526 27.5303C153.556 27.5303 154.43 27.3064 155.146 26.8585C155.863 26.4105 156.367 25.6043 156.658 24.4397C156.748 24.1038 156.871 23.8798 157.028 23.7678C157.207 23.6335 157.442 23.5663 157.733 23.5663H162.268C162.47 23.5663 162.638 23.6335 162.772 23.7678C162.929 23.9022 162.996 24.0702 162.974 24.2717C162.951 25.5259 162.671 26.6569 162.134 27.6647C161.619 28.6501 160.891 29.5011 159.95 30.2178C159.01 30.9121 157.912 31.4496 156.658 31.8303C155.404 32.1886 154.038 32.3678 152.56 32.3678L151.888 33.7115C152.022 33.6444 152.201 33.5884 152.425 33.5436C152.672 33.5212 152.862 33.51 152.996 33.51C153.803 33.51 154.441 33.7787 154.911 34.3162C155.404 34.8537 155.65 35.5592 155.65 36.4326C155.65 37.2837 155.359 37.9891 154.777 38.549C154.195 39.1313 153.4 39.4224 152.392 39.4224ZM168.73 32.0319C168.551 32.0319 168.383 31.9647 168.226 31.8303C168.092 31.6735 168.025 31.5056 168.025 31.3264C168.025 31.2144 168.036 31.1136 168.058 31.0241L175.953 9.45699C176.02 9.21063 176.154 8.99788 176.356 8.81871C176.58 8.61715 176.882 8.51637 177.263 8.51637H182.235C182.616 8.51637 182.907 8.61715 183.108 8.81871C183.332 8.99788 183.478 9.21063 183.545 9.45699L191.406 31.0241C191.451 31.1136 191.473 31.2144 191.473 31.3264C191.473 31.5056 191.395 31.6735 191.238 31.8303C191.104 31.9647 190.936 32.0319 190.734 32.0319H186.602C186.266 32.0319 186.009 31.9535 185.829 31.7967C185.673 31.6175 185.572 31.4608 185.527 31.3264L184.217 27.8999H175.247L173.971 31.3264C173.926 31.4608 173.825 31.6175 173.669 31.7967C173.512 31.9535 173.243 32.0319 172.862 32.0319H168.73ZM176.625 23.0624H182.873L179.715 14.1937L176.625 23.0624Z" fill="url(#paint2_linear_579_25)"/>
<defs>
<filter id="filter0_i_579_25" x="3.14783" y="36.1393" width="189.364" height="39.4541" filterUnits="userSpaceOnUse" color-interpolation-filters="sRGB">
<feFlood flood-opacity="0" result="BackgroundImageFix"/>
<feBlend mode="normal" in="SourceGraphic" in2="BackgroundImageFix" result="shape"/>
<feColorMatrix in="SourceAlpha" type="matrix" values="0 0 0 0 0 0 0 0 0 0 0 0 0 0 0 0 0 0 127 0" result="hardAlpha"/>
<feOffset dy="0.521702"/>
<feGaussianBlur stdDeviation="1.56511"/>
<feComposite in2="hardAlpha" operator="arithmetic" k2="-1" k3="1"/>
<feColorMatrix type="matrix" values="0 0 0 0 0 0 0 0 0 0 0 0 0 0 0 0 0 0 0.3 0"/>
<feBlend mode="normal" in2="shape" result="effect1_innerShadow_579_25"/>
</filter>
<linearGradient id="paint0_linear_579_25" x1="51.0828" y1="24.8064" x2="89.4902" y2="107.621" gradientUnits="userSpaceOnUse">
<stop stop-color="#FD5972"/>
<stop offset="0.182292" stop-color="#FFA866"/>
<stop offset="0.359375" stop-color="#EDF06C"/>
<stop offset="0.583333" stop-color="#75F2A7"/>
<stop offset="0.776042" stop-color="#3F82E7"/>
<stop offset="1" stop-color="#BC66FF"/>
</linearGradient>
<linearGradient id="paint1_linear_579_25" x1="-37.4316" y1="-40.2949" x2="-52.6413" y2="31.4988" gradientUnits="userSpaceOnUse">
<stop stop-color="#FFD789"/>
<stop offset="1" stop-color="white" stop-opacity="0"/>
</linearGradient>
<linearGradient id="paint2_linear_579_25" x1="97.5408" y1="0.0318604" x2="97.5408" y2="70.8898" gradientUnits="userSpaceOnUse">
<stop stop-color="white"/>
<stop offset="1" stop-color="white"/>
</linearGradient>
</defs>
</svg>
