<svg width="30" height="60" viewBox="0 0 30 60" fill="none" xmlns="http://www.w3.org/2000/svg">
<g opacity="0.55">
<path d="M14.9272 42.9872C14.0047 42.9872 13.2573 43.7346 13.2573 44.6571V54.3243L10.0921 51.5569C9.39786 50.9507 8.34383 51.0212 7.73644 51.7142C7.12905 52.4085 7.19948 53.4629 7.89376 54.0703L13.8272 59.2601C14.144 59.5364 14.5354 59.6726 14.9256 59.6726H14.9268C15.317 59.6726 15.7088 59.5364 16.0252 59.2592L21.9557 54.0695C22.65 53.4621 22.72 52.4076 22.1126 51.7138C21.5065 51.0195 20.4516 50.9503 19.7569 51.5569L16.5951 54.323L16.596 44.6563C16.5972 43.7346 15.8494 42.9872 14.9274 42.9872L14.9272 42.9872Z" fill="black"/>
<path d="M29.2003 29.7855V10.6524C29.2003 4.79115 24.4318 0.0227356 18.5709 0.0227356H11.2813C5.41918 0.0227356 0.649902 4.79115 0.649902 10.6524V29.7855C0.649902 35.6468 5.41918 40.4161 11.2813 40.4161H18.5709C24.4317 40.4161 29.2003 35.6472 29.2003 29.7855ZM25.8604 29.7855C25.8604 33.8065 22.5907 37.0771 18.57 37.0771H11.2813C7.26036 37.0771 3.98931 33.8065 3.98931 29.7855V10.6524C3.98931 6.63233 7.26079 3.3616 11.2813 3.3616H18.5709C22.591 3.3616 25.8613 6.63222 25.8613 10.6524V29.7855H25.8604Z" fill="black"/>
<path d="M14.9272 9.49088C14.0048 9.49088 13.2573 10.2383 13.2573 11.1608V16.122C13.2573 17.0444 14.0048 17.7919 14.9272 17.7919C15.8497 17.7919 16.5972 17.0444 16.5972 16.122V11.1608C16.5972 10.2387 15.8493 9.49088 14.9272 9.49088V9.49088Z" fill="black"/>
</g>
</svg>
