<svg width="23" height="22" viewBox="0 0 23 22" fill="none" xmlns="http://www.w3.org/2000/svg">
<path d="M7.23433 7.61045C7.85619 7.61045 8.3603 7.09744 8.3603 6.4646C8.3603 5.83176 7.85619 5.31875 7.23433 5.31875C6.61247 5.31875 6.10836 5.83176 6.10836 6.4646C6.10836 7.09744 6.61247 7.61045 7.23433 7.61045Z" fill="#C342DB"/>
<path d="M12.8642 6.4646C12.8642 7.09744 12.3601 7.61045 11.7382 7.61045C11.1164 7.61045 10.6122 7.09744 10.6122 6.4646C10.6122 5.83176 11.1164 5.31875 11.7382 5.31875C12.3601 5.31875 12.8642 5.83176 12.8642 6.4646Z" fill="#C342DB"/>
<path d="M14.6882 13.3397C14.6882 13.9725 14.1841 14.4855 13.5623 14.4855C12.9404 14.4855 12.4363 13.9725 12.4363 13.3397C12.4363 12.7069 12.9404 12.1938 13.5623 12.1938C14.1841 12.1938 14.6882 12.7069 14.6882 13.3397Z" fill="#C342DB"/>
<path d="M17.3681 14.4855C17.9899 14.4855 18.494 13.9725 18.494 13.3397C18.494 12.7069 17.9899 12.1938 17.3681 12.1938C16.7462 12.1938 16.2421 12.7069 16.2421 13.3397C16.2421 13.9725 16.7462 14.4855 17.3681 14.4855Z" fill="#C342DB"/>
<path fill-rule="evenodd" clip-rule="evenodd" d="M18.4741 8.0327C18.1563 3.79538 14.0702 0.735352 9.48627 0.735352C4.71236 0.735352 0.478516 4.05421 0.478516 8.56532C0.478516 11.131 1.88371 13.3443 3.94164 14.7409C4.06409 15.1963 3.98153 15.6758 3.98153 16.1407C3.98153 16.7735 4.48564 17.2865 5.1075 17.2865C6.14814 17.2865 7.0761 16.9212 7.88155 16.2717C8.05054 16.298 8.22109 16.3203 8.39304 16.3383C9.47656 18.9281 12.3528 20.6366 15.468 20.6366C15.8912 20.6366 16.3071 20.6061 16.7127 20.5474C17.3819 21.0779 18.1726 21.3607 19.0257 21.3607C19.6476 21.3607 20.1517 20.8477 20.1517 20.2148C20.1517 19.8787 20.1066 19.5415 20.1615 19.2072C21.8423 18.0376 22.9979 16.1992 22.9979 14.0599C22.9979 11.253 21.0683 9.01947 18.4741 8.0327ZM9.48627 3.02705C5.55419 3.02705 2.73045 5.69336 2.73045 8.56532C2.73045 10.2574 3.67255 11.8397 5.27945 12.8933C5.87799 13.2857 6.13447 13.9896 6.21508 14.679C6.31145 14.6133 6.4054 14.5437 6.49881 14.4746C6.92942 14.1558 7.34845 13.8455 7.93893 13.957C8.00243 10.1915 11.5459 7.48316 15.468 7.48316C15.6847 7.48316 15.9003 7.49144 16.1143 7.5077C15.5223 5.0712 12.9292 3.02705 9.48627 3.02705ZM20.746 14.0599C20.746 11.8801 18.5839 9.77486 15.468 9.77486C12.3521 9.77486 10.19 11.8801 10.19 14.0599C10.19 16.2397 12.3521 18.3449 15.468 18.3449C15.887 18.3449 16.2932 18.305 16.6819 18.2302C17.1708 18.1361 17.6043 18.3443 17.9766 18.6429C18.0886 18.1466 18.342 17.6774 18.7717 17.3957C20.029 16.5714 20.746 15.3482 20.746 14.0599Z" fill="#C342DB"/>
</svg>
