<svg width="14" height="13" viewBox="0 0 14 13" fill="none" xmlns="http://www.w3.org/2000/svg">
<path d="M13.5533 6.77737C13.8684 6.46226 13.8684 5.95136 13.5533 5.63625L8.41823 0.501168C8.10312 0.186054 7.59222 0.186052 7.27711 0.501164C6.96199 0.816276 6.96199 1.32717 7.2771 1.64229L11.8416 6.2068L7.27707 10.7713C6.96196 11.0864 6.96195 11.5973 7.27707 11.9124C7.59218 12.2275 8.10308 12.2275 8.41819 11.9124L13.5533 6.77737ZM7.59596 6.20679L7.59596 5.39989H7.59596V6.20679ZM1.57227 5.39989C1.12663 5.39989 0.765369 5.76115 0.765369 6.20679C0.765369 6.65242 1.12663 7.01368 1.57227 7.01368V5.39989ZM12.9827 5.39991L7.59596 5.39989L7.59596 7.01368L12.9827 7.0137L12.9827 5.39991ZM7.59596 5.39989H1.57227V7.01368H7.59596V5.39989Z" fill="#101010"/>
</svg>
