<svg width="149" height="182" viewBox="0 0 149 182" fill="none" xmlns="http://www.w3.org/2000/svg">
<path d="M73.5933 0.989197C88.3337 0.989197 101.057 3.78211 111.763 9.36795C122.469 14.9538 130.693 22.5567 136.434 32.1768C142.33 41.6417 145.588 52.2703 146.209 64.0626C146.519 68.4071 146.675 75.3894 146.675 85.0095C146.675 94.4743 146.519 101.301 146.209 105.491C145.278 122.404 139.537 136.446 128.986 147.617L147.373 174.15C147.838 175.081 148.071 175.779 148.071 176.245V176.943C148.071 178.184 147.606 179.193 146.675 179.969C145.744 180.9 144.658 181.365 143.416 181.365H110.599C108.117 181.365 106.1 180.822 104.548 179.736C103.152 178.805 101.91 177.564 100.824 176.012L94.3074 166.237C87.0148 167.788 80.1101 168.564 73.5933 168.564C58.8529 168.564 46.1296 165.771 35.4234 160.185C24.7172 154.6 16.4161 147.074 10.5199 137.609C4.77892 127.989 1.5981 117.283 0.977449 105.491C0.667125 97.1121 0.511963 90.285 0.511963 85.0095C0.511963 79.7339 0.667125 72.7516 0.977449 64.0626C1.5981 52.2703 4.77892 41.6417 10.5199 32.1768C16.4161 22.5567 24.7172 14.9538 35.4234 9.36795C46.1296 3.78211 58.8529 0.989197 73.5933 0.989197ZM103.152 65.2263C102.376 57.0027 99.5054 50.4859 94.5402 45.6759C89.7301 40.7107 82.7478 38.2281 73.5933 38.2281C64.4387 38.2281 57.3789 40.7107 52.4137 45.6759C47.6036 50.4859 44.8107 57.0027 44.0349 65.2263C43.5694 70.3466 43.3367 76.7859 43.3367 84.544C43.3367 92.1469 43.5694 98.7413 44.0349 104.327C44.8107 112.551 47.6036 119.145 52.4137 124.11C57.3789 128.92 64.4387 131.325 73.5933 131.325C82.7478 131.325 89.7301 128.92 94.5402 124.11C99.5054 119.145 102.376 112.551 103.152 104.327C103.617 98.7413 103.85 92.1469 103.85 84.544C103.85 76.7859 103.617 70.3466 103.152 65.2263Z" fill="#101010"/>
</svg>
