<svg width="144" height="164" viewBox="0 0 144 164" fill="none" xmlns="http://www.w3.org/2000/svg">
<path d="M52.7952 163.407C51.0884 163.407 49.6144 162.864 48.3731 161.778C47.287 160.537 46.7439 159.063 46.7439 157.356V43.7774H6.71209C5.0053 43.7774 3.53126 43.2343 2.28997 42.1482C1.20383 40.9069 0.660766 39.4329 0.660766 37.7261V6.53851C0.660766 4.83172 1.20383 3.43526 2.28997 2.34914C3.53126 1.10784 5.0053 0.487187 6.71209 0.487187H137.514C139.22 0.487187 140.617 1.10784 141.703 2.34914C142.944 3.43526 143.565 4.83172 143.565 6.53851V37.7261C143.565 39.4329 142.944 40.9069 141.703 42.1482C140.617 43.2343 139.22 43.7774 137.514 43.7774H97.4819V157.356C97.4819 159.063 96.8612 160.537 95.6199 161.778C94.5338 162.864 93.1373 163.407 91.4306 163.407H52.7952Z" fill="#101010"/>
</svg>
