<svg width="44" height="16" viewBox="0 0 44 16" fill="none" xmlns="http://www.w3.org/2000/svg">
<path d="M42.8838 8.97944C43.2738 8.58953 43.2738 7.95734 42.8838 7.56743L36.5298 1.21337C36.1398 0.823456 35.5077 0.823458 35.1177 1.21338C34.7278 1.60329 34.7278 2.23548 35.1177 2.62539L40.7658 8.27344L35.1178 13.9215C34.7279 14.3114 34.7279 14.9436 35.1178 15.3335C35.5077 15.7234 36.1399 15.7234 36.5298 15.3335L42.8838 8.97944ZM21.5568 8.27349L21.5568 7.27504H21.5568L21.5568 8.27349ZM1.37646 7.27515C0.825033 7.27515 0.378016 7.72217 0.378019 8.2736C0.378022 8.82503 0.825044 9.27204 1.37647 9.27204L1.37646 7.27515ZM42.1778 7.27499L21.5568 7.27504L21.5568 9.27193L42.1778 9.27188L42.1778 7.27499ZM21.5568 7.27504L1.37646 7.27515L1.37647 9.27204L21.5568 9.27193L21.5568 7.27504Z" fill="#222222"/>
<svg width="19" height="8" viewBox="0 0 19 8" fill="none" xmlns="http://www.w3.org/2000/svg">
<path d="M18.4306 4.19004C18.6259 3.99478 18.6259 3.6782 18.4306 3.48293L15.2487 0.300916C15.0534 0.105651 14.7368 0.105648 14.5416 0.300907C14.3463 0.496167 14.3463 0.81275 14.5416 1.00801L17.3699 3.83647L14.5415 6.66487C14.3462 6.86013 14.3462 7.17671 14.5415 7.37198C14.7367 7.56724 15.0533 7.56724 15.2486 7.37198L18.4306 4.19004ZM13.2418 3.83643L13.2418 3.33643H13.2418V3.83643ZM1.29907 3.33643C1.02293 3.33643 0.799072 3.56028 0.799072 3.83643C0.799072 4.11257 1.02293 4.33643 1.29907 4.33643V3.33643ZM18.0771 3.33648L13.2418 3.33643L13.2418 4.33643L18.077 4.33648L18.0771 3.33648ZM13.2418 3.33643H1.29907V4.33643H13.2418V3.33643Z" fill="#222222"/>
</svg>
