<svg width="19" height="8" viewBox="0 0 19 8" fill="none" xmlns="http://www.w3.org/2000/svg">
<path d="M18.4306 4.19004C18.6259 3.99478 18.6259 3.6782 18.4306 3.48293L15.2487 0.300916C15.0534 0.105651 14.7368 0.105648 14.5416 0.300907C14.3463 0.496167 14.3463 0.81275 14.5416 1.00801L17.3699 3.83647L14.5415 6.66487C14.3462 6.86013 14.3462 7.17671 14.5415 7.37198C14.7367 7.56724 15.0533 7.56724 15.2486 7.37198L18.4306 4.19004ZM13.2418 3.83643L13.2418 3.33643H13.2418V3.83643ZM1.29907 3.33643C1.02293 3.33643 0.799072 3.56028 0.799072 3.83643C0.799072 4.11257 1.02293 4.33643 1.29907 4.33643V3.33643ZM18.0771 3.33648L13.2418 3.33643L13.2418 4.33643L18.077 4.33648L18.0771 3.33648ZM13.2418 3.33643H1.29907V4.33643H13.2418V3.33643Z" fill="#222222"/>
</svg>
