<svg width="43" height="43" viewBox="0 0 43 43" fill="none" xmlns="http://www.w3.org/2000/svg">
<path fill-rule="evenodd" clip-rule="evenodd" d="M0.468262 21.5C0.468262 9.62588 9.87028 0 21.4683 0C33.0662 0 42.4683 9.62588 42.4683 21.5C42.4683 33.3741 33.0662 43 21.4683 43C9.87028 43 0.468262 33.3741 0.468262 21.5ZM21.4683 10.75C27.2433 10.75 31.9683 15.5875 31.9683 21.5C31.9683 26.875 28.162 31.4438 22.912 32.25V24.5906H25.4058L25.9308 21.5H23.0433V19.4844C23.0433 18.6781 23.437 17.8719 24.7495 17.8719H26.062V15.1844C26.062 15.1844 24.8808 14.9156 23.6995 14.9156C21.337 14.9156 19.762 16.3937 19.762 19.0812V21.5H17.137V24.5906H19.762V32.1156C14.7745 31.3094 10.9683 26.875 10.9683 21.5C10.9683 15.5875 15.6933 10.75 21.4683 10.75Z" fill="#636363"/>
</svg>
