<svg width="153" height="169" viewBox="0 0 153 169" fill="none" xmlns="http://www.w3.org/2000/svg">
<path d="M75.6554 168.031C60.2943 168.031 47.1055 165.704 36.089 161.049C25.0725 156.239 16.461 149.102 10.2546 139.637C4.04807 130.172 0.712086 118.457 0.2466 104.492C0.0914381 97.9756 0.0138572 90.9933 0.0138572 83.5455C0.0138572 75.9426 0.0914381 68.8052 0.2466 62.1332C0.712086 48.6341 4.04807 37.3073 10.2546 28.1527C16.6162 18.9981 25.3829 12.0934 36.5545 7.43857C47.7262 2.7837 60.7598 0.456267 75.6554 0.456267C87.6028 0.456267 98.2314 1.85273 107.541 4.64564C116.851 7.43856 124.764 11.24 131.281 16.0501C137.953 20.8601 142.996 26.2907 146.409 32.3421C149.978 38.2382 151.84 44.3671 151.995 50.7288C151.995 52.1252 151.452 53.3665 150.366 54.4527C149.435 55.3836 148.271 55.8491 146.875 55.8491H104.05C102.498 55.8491 101.257 55.6164 100.326 55.1509C99.3952 54.5302 98.5418 53.7544 97.7659 52.8235C96.9901 51.2718 95.7488 49.4875 94.0421 47.4704C92.4904 45.4533 90.2406 43.7465 87.2925 42.35C84.3444 40.7984 80.4654 40.0226 75.6554 40.0226C68.3627 40.0226 62.6993 41.8845 58.6651 45.6084C54.6309 49.3323 52.4586 55.2285 52.1483 63.2969C51.6828 76.3305 51.6828 89.6745 52.1483 103.329C52.4586 112.173 54.7085 118.612 58.8979 122.646C63.2424 126.525 69.061 128.465 76.3536 128.465C81.1636 128.465 85.4306 127.689 89.1545 126.138C93.0335 124.586 96.0592 122.181 98.2314 118.922C100.404 115.509 101.49 111.164 101.49 105.889V103.561H84.9651C83.2583 103.561 81.7843 102.941 80.543 101.7C79.4568 100.458 78.9138 99.0618 78.9138 97.5101V75.865C78.9138 74.1582 79.4568 72.7618 80.543 71.6757C81.7843 70.4344 83.2583 69.8137 84.9651 69.8137H146.177C147.883 69.8137 149.357 70.4344 150.599 71.6757C151.84 72.7618 152.461 74.1582 152.461 75.865V104.26C152.461 117.914 149.202 129.474 142.685 138.938C136.169 148.403 127.169 155.618 115.687 160.584C104.205 165.549 90.8612 168.031 75.6554 168.031Z" fill="#101010"/>
</svg>
