<svg width="18" height="15" viewBox="0 0 18 15" fill="none" xmlns="http://www.w3.org/2000/svg">
<path d="M13.6932 0.986816C12.2274 0.986816 10.9326 1.69667 10.1589 2.7783C10.1589 2.7783 9.89759 3.15545 9.48321 3.15545C9.0692 3.15545 8.80794 2.7783 8.80794 2.7783C8.03381 1.69667 6.73975 0.986816 5.27363 0.986816C2.90404 0.986816 0.983398 2.8396 0.983398 5.12619C0.983398 5.66611 1.0934 6.17986 1.28814 6.65273C2.49003 10.2529 7.86546 14.4855 9.48321 14.64C11.1013 14.4855 16.476 10.2529 17.6787 6.65273C17.8734 6.18022 17.9834 5.66611 17.9834 5.12619C17.9834 2.8396 16.0628 0.986816 13.6932 0.986816Z" fill="#7F7F7F"/>
</svg>
