<svg width="126" height="164" viewBox="0 0 126 164" fill="none" xmlns="http://www.w3.org/2000/svg">
<path d="M6.72004 163.539C5.16842 163.539 3.77196 162.996 2.53066 161.91C1.28937 160.669 0.668719 159.195 0.668719 157.488V6.67059C0.668719 4.9638 1.28937 3.56734 2.53066 2.48122C3.77196 1.23992 5.16842 0.619267 6.72004 0.619267H45.3554C47.0622 0.619267 48.5362 1.23992 49.7775 2.48122C51.0188 3.56734 51.6395 4.9638 51.6395 6.67059V122.111H118.902C120.609 122.111 122.083 122.732 123.324 123.973C124.566 125.059 125.186 126.456 125.186 128.162V157.488C125.186 159.195 124.566 160.669 123.324 161.91C122.083 162.996 120.609 163.539 118.902 163.539H6.72004Z" fill="#101010"/>
</svg>
