<svg width="155" height="86" viewBox="0 0 194 86" fill="none" xmlns="http://www.w3.org/2000/svg">
<g filter="url(#filter0_di_577_30)">
<path d="M25.8173 75.6525C25.248 75.6525 24.8126 75.5018 24.5112 75.2004C24.2098 74.9325 23.9754 74.698 23.8079 74.4971L22.2506 72.4877C21.1454 72.7556 19.9231 72.8896 18.5834 72.8896C15.4019 72.8896 12.6222 72.3872 10.2444 71.3825C7.86656 70.3778 6.00785 68.8707 4.66824 66.8613C3.32863 64.8184 2.59184 62.2899 2.45788 59.2758C2.42439 57.8692 2.40764 56.4291 2.40764 54.9555C2.40764 53.4485 2.42439 51.9581 2.45788 50.4846C2.59184 47.5039 3.32863 44.9922 4.66824 42.9493C6.00785 40.9064 7.86656 39.3658 10.2444 38.3276C12.6222 37.2559 15.4019 36.7201 18.5834 36.7201C21.7315 36.7201 24.4945 37.2559 26.8723 38.3276C29.2501 39.3658 31.1255 40.9064 32.4987 42.9493C33.8718 44.9922 34.6085 47.5039 34.709 50.4846C34.776 51.9581 34.8095 53.4485 34.8095 54.9555C34.8095 56.4291 34.776 57.8692 34.709 59.2758C34.5081 63.2276 33.2857 66.3422 31.0418 68.6196L34.9099 74.0952C34.9434 74.1287 34.9769 74.1957 35.0104 74.2962C35.0439 74.3966 35.0607 74.4803 35.0607 74.5473C35.0941 74.8487 34.9937 75.0999 34.7592 75.3009C34.5583 75.5353 34.3239 75.6525 34.0559 75.6525H25.8173ZM18.5834 64.3495C20.0235 64.3495 21.1789 63.9309 22.0497 63.0937C22.9539 62.2229 23.4228 60.8498 23.4563 58.9744C23.5233 57.5343 23.5567 56.1444 23.5567 54.8048C23.5567 53.4317 23.5233 52.0419 23.4563 50.6353C23.4228 49.3961 23.1884 48.3747 22.753 47.5709C22.3511 46.7672 21.7818 46.1811 21.045 45.8127C20.3417 45.4443 19.5212 45.2601 18.5834 45.2601C17.6457 45.2601 16.8085 45.4443 16.0717 45.8127C15.3684 46.1811 14.799 46.7672 14.3637 47.5709C13.9283 48.3747 13.6939 49.3961 13.6604 50.6353C13.6269 52.0419 13.6101 53.4317 13.6101 54.8048C13.6101 56.1444 13.6269 57.5343 13.6604 58.9744C13.7274 60.8498 14.1962 62.2229 15.067 63.0937C15.9712 63.9309 17.1434 64.3495 18.5834 64.3495ZM59.9052 72.8896C56.7906 72.8896 54.0444 72.404 51.6666 71.4327C49.3223 70.4615 47.4803 68.9545 46.1407 66.9115C44.8346 64.8352 44.1815 62.2229 44.1815 59.0748V38.5285C44.1815 38.1602 44.3155 37.8587 44.5834 37.6243C44.8513 37.3564 45.1527 37.2224 45.4876 37.2224H53.676C54.0444 37.2224 54.3458 37.3564 54.5802 37.6243C54.8482 37.8587 54.9821 38.1602 54.9821 38.5285V58.9241C54.9821 60.6321 55.4008 61.9215 56.238 62.7922C57.0753 63.663 58.2809 64.0984 59.855 64.0984C61.429 64.0984 62.6179 63.663 63.4217 62.7922C64.2589 61.9215 64.6776 60.6321 64.6776 58.9241V38.5285C64.6776 38.1602 64.8115 37.8587 65.0794 37.6243C65.3474 37.3564 65.6655 37.2224 66.0339 37.2224H74.1721C74.5404 37.2224 74.8419 37.3564 75.0763 37.6243C75.3442 37.8587 75.4782 38.1602 75.4782 38.5285V59.0748C75.4782 62.2229 74.8251 64.8352 73.519 66.9115C72.2129 68.9545 70.3877 70.4615 68.0433 71.4327C65.699 72.404 62.9863 72.8896 59.9052 72.8896ZM87.3 72.3872C86.9651 72.3872 86.6637 72.27 86.3957 72.0356C86.1278 71.7676 85.9939 71.4495 85.9939 71.0811V38.5285C85.9939 38.1602 86.1278 37.8587 86.3957 37.6243C86.6637 37.3564 86.9651 37.2224 87.3 37.2224H111.915C112.284 37.2224 112.602 37.3564 112.87 37.6243C113.138 37.8587 113.272 38.1602 113.272 38.5285V44.4563C113.272 44.7912 113.138 45.0926 112.87 45.3606C112.602 45.6285 112.284 45.7624 111.915 45.7624H96.3926V50.7357H110.81C111.179 50.7357 111.497 50.8697 111.765 51.1376C112.033 51.3721 112.166 51.6735 112.166 52.0419V57.4673C112.166 57.8357 112.033 58.1538 111.765 58.4218C111.497 58.6562 111.179 58.7734 110.81 58.7734H96.3926V63.8472H112.317C112.686 63.8472 113.004 63.9811 113.272 64.2491C113.54 64.517 113.674 64.8352 113.674 65.2035V71.0811C113.674 71.4495 113.54 71.7676 113.272 72.0356C113.004 72.27 112.686 72.3872 112.317 72.3872H87.3ZM124.641 72.3872C124.306 72.3872 124.005 72.27 123.737 72.0356C123.469 71.7676 123.335 71.4495 123.335 71.0811V38.5285C123.335 38.1602 123.469 37.8587 123.737 37.6243C124.005 37.3564 124.306 37.2224 124.641 37.2224H149.256C149.625 37.2224 149.943 37.3564 150.211 37.6243C150.479 37.8587 150.613 38.1602 150.613 38.5285V44.4563C150.613 44.7912 150.479 45.0926 150.211 45.3606C149.943 45.6285 149.625 45.7624 149.256 45.7624H133.734V50.7357H148.151C148.52 50.7357 148.838 50.8697 149.106 51.1376C149.374 51.3721 149.507 51.6735 149.507 52.0419V57.4673C149.507 57.8357 149.374 58.1538 149.106 58.4218C148.838 58.6562 148.52 58.7734 148.151 58.7734H133.734V63.8472H149.658C150.027 63.8472 150.345 63.9811 150.613 64.2491C150.881 64.517 151.015 64.8352 151.015 65.2035V71.0811C151.015 71.4495 150.881 71.7676 150.613 72.0356C150.345 72.27 150.027 72.3872 149.658 72.3872H124.641ZM161.982 72.3872C161.647 72.3872 161.346 72.27 161.078 72.0356C160.81 71.7676 160.676 71.4495 160.676 71.0811V38.5285C160.676 38.1602 160.81 37.8587 161.078 37.6243C161.346 37.3564 161.647 37.2224 161.982 37.2224H176.299C180.854 37.2224 184.42 38.2606 186.999 40.337C189.611 42.4134 190.918 45.3103 190.918 49.0277C190.918 51.3721 190.382 53.3647 189.31 55.0058C188.238 56.6468 186.832 57.9362 185.09 58.8739L191.621 70.7294C191.721 70.9304 191.772 71.1146 191.772 71.282C191.772 71.5834 191.671 71.8514 191.47 72.0858C191.269 72.2867 191.018 72.3872 190.717 72.3872H182.227C181.591 72.3872 181.105 72.2365 180.77 71.9351C180.435 71.6002 180.217 71.2988 180.117 71.0309L175.093 60.6824H171.476V71.0811C171.476 71.4495 171.342 71.7676 171.075 72.0356C170.84 72.27 170.539 72.3872 170.17 72.3872H161.982ZM171.476 52.3935H176.249C177.421 52.3935 178.292 52.0754 178.861 51.439C179.43 50.7692 179.715 49.9487 179.715 48.9775C179.715 47.9728 179.43 47.1188 178.861 46.4155C178.325 45.7122 177.454 45.3606 176.249 45.3606H171.476V52.3935Z" fill="url(#paint0_linear_577_30)"/>
<path d="M25.8173 75.6525C25.248 75.6525 24.8126 75.5018 24.5112 75.2004C24.2098 74.9325 23.9754 74.698 23.8079 74.4971L22.2506 72.4877C21.1454 72.7556 19.9231 72.8896 18.5834 72.8896C15.4019 72.8896 12.6222 72.3872 10.2444 71.3825C7.86656 70.3778 6.00785 68.8707 4.66824 66.8613C3.32863 64.8184 2.59184 62.2899 2.45788 59.2758C2.42439 57.8692 2.40764 56.4291 2.40764 54.9555C2.40764 53.4485 2.42439 51.9581 2.45788 50.4846C2.59184 47.5039 3.32863 44.9922 4.66824 42.9493C6.00785 40.9064 7.86656 39.3658 10.2444 38.3276C12.6222 37.2559 15.4019 36.7201 18.5834 36.7201C21.7315 36.7201 24.4945 37.2559 26.8723 38.3276C29.2501 39.3658 31.1255 40.9064 32.4987 42.9493C33.8718 44.9922 34.6085 47.5039 34.709 50.4846C34.776 51.9581 34.8095 53.4485 34.8095 54.9555C34.8095 56.4291 34.776 57.8692 34.709 59.2758C34.5081 63.2276 33.2857 66.3422 31.0418 68.6196L34.9099 74.0952C34.9434 74.1287 34.9769 74.1957 35.0104 74.2962C35.0439 74.3966 35.0607 74.4803 35.0607 74.5473C35.0941 74.8487 34.9937 75.0999 34.7592 75.3009C34.5583 75.5353 34.3239 75.6525 34.0559 75.6525H25.8173ZM18.5834 64.3495C20.0235 64.3495 21.1789 63.9309 22.0497 63.0937C22.9539 62.2229 23.4228 60.8498 23.4563 58.9744C23.5233 57.5343 23.5567 56.1444 23.5567 54.8048C23.5567 53.4317 23.5233 52.0419 23.4563 50.6353C23.4228 49.3961 23.1884 48.3747 22.753 47.5709C22.3511 46.7672 21.7818 46.1811 21.045 45.8127C20.3417 45.4443 19.5212 45.2601 18.5834 45.2601C17.6457 45.2601 16.8085 45.4443 16.0717 45.8127C15.3684 46.1811 14.799 46.7672 14.3637 47.5709C13.9283 48.3747 13.6939 49.3961 13.6604 50.6353C13.6269 52.0419 13.6101 53.4317 13.6101 54.8048C13.6101 56.1444 13.6269 57.5343 13.6604 58.9744C13.7274 60.8498 14.1962 62.2229 15.067 63.0937C15.9712 63.9309 17.1434 64.3495 18.5834 64.3495ZM59.9052 72.8896C56.7906 72.8896 54.0444 72.404 51.6666 71.4327C49.3223 70.4615 47.4803 68.9545 46.1407 66.9115C44.8346 64.8352 44.1815 62.2229 44.1815 59.0748V38.5285C44.1815 38.1602 44.3155 37.8587 44.5834 37.6243C44.8513 37.3564 45.1527 37.2224 45.4876 37.2224H53.676C54.0444 37.2224 54.3458 37.3564 54.5802 37.6243C54.8482 37.8587 54.9821 38.1602 54.9821 38.5285V58.9241C54.9821 60.6321 55.4008 61.9215 56.238 62.7922C57.0753 63.663 58.2809 64.0984 59.855 64.0984C61.429 64.0984 62.6179 63.663 63.4217 62.7922C64.2589 61.9215 64.6776 60.6321 64.6776 58.9241V38.5285C64.6776 38.1602 64.8115 37.8587 65.0794 37.6243C65.3474 37.3564 65.6655 37.2224 66.0339 37.2224H74.1721C74.5404 37.2224 74.8419 37.3564 75.0763 37.6243C75.3442 37.8587 75.4782 38.1602 75.4782 38.5285V59.0748C75.4782 62.2229 74.8251 64.8352 73.519 66.9115C72.2129 68.9545 70.3877 70.4615 68.0433 71.4327C65.699 72.404 62.9863 72.8896 59.9052 72.8896ZM87.3 72.3872C86.9651 72.3872 86.6637 72.27 86.3957 72.0356C86.1278 71.7676 85.9939 71.4495 85.9939 71.0811V38.5285C85.9939 38.1602 86.1278 37.8587 86.3957 37.6243C86.6637 37.3564 86.9651 37.2224 87.3 37.2224H111.915C112.284 37.2224 112.602 37.3564 112.87 37.6243C113.138 37.8587 113.272 38.1602 113.272 38.5285V44.4563C113.272 44.7912 113.138 45.0926 112.87 45.3606C112.602 45.6285 112.284 45.7624 111.915 45.7624H96.3926V50.7357H110.81C111.179 50.7357 111.497 50.8697 111.765 51.1376C112.033 51.3721 112.166 51.6735 112.166 52.0419V57.4673C112.166 57.8357 112.033 58.1538 111.765 58.4218C111.497 58.6562 111.179 58.7734 110.81 58.7734H96.3926V63.8472H112.317C112.686 63.8472 113.004 63.9811 113.272 64.2491C113.54 64.517 113.674 64.8352 113.674 65.2035V71.0811C113.674 71.4495 113.54 71.7676 113.272 72.0356C113.004 72.27 112.686 72.3872 112.317 72.3872H87.3ZM124.641 72.3872C124.306 72.3872 124.005 72.27 123.737 72.0356C123.469 71.7676 123.335 71.4495 123.335 71.0811V38.5285C123.335 38.1602 123.469 37.8587 123.737 37.6243C124.005 37.3564 124.306 37.2224 124.641 37.2224H149.256C149.625 37.2224 149.943 37.3564 150.211 37.6243C150.479 37.8587 150.613 38.1602 150.613 38.5285V44.4563C150.613 44.7912 150.479 45.0926 150.211 45.3606C149.943 45.6285 149.625 45.7624 149.256 45.7624H133.734V50.7357H148.151C148.52 50.7357 148.838 50.8697 149.106 51.1376C149.374 51.3721 149.507 51.6735 149.507 52.0419V57.4673C149.507 57.8357 149.374 58.1538 149.106 58.4218C148.838 58.6562 148.52 58.7734 148.151 58.7734H133.734V63.8472H149.658C150.027 63.8472 150.345 63.9811 150.613 64.2491C150.881 64.517 151.015 64.8352 151.015 65.2035V71.0811C151.015 71.4495 150.881 71.7676 150.613 72.0356C150.345 72.27 150.027 72.3872 149.658 72.3872H124.641ZM161.982 72.3872C161.647 72.3872 161.346 72.27 161.078 72.0356C160.81 71.7676 160.676 71.4495 160.676 71.0811V38.5285C160.676 38.1602 160.81 37.8587 161.078 37.6243C161.346 37.3564 161.647 37.2224 161.982 37.2224H176.299C180.854 37.2224 184.42 38.2606 186.999 40.337C189.611 42.4134 190.918 45.3103 190.918 49.0277C190.918 51.3721 190.382 53.3647 189.31 55.0058C188.238 56.6468 186.832 57.9362 185.09 58.8739L191.621 70.7294C191.721 70.9304 191.772 71.1146 191.772 71.282C191.772 71.5834 191.671 71.8514 191.47 72.0858C191.269 72.2867 191.018 72.3872 190.717 72.3872H182.227C181.591 72.3872 181.105 72.2365 180.77 71.9351C180.435 71.6002 180.217 71.2988 180.117 71.0309L175.093 60.6824H171.476V71.0811C171.476 71.4495 171.342 71.7676 171.075 72.0356C170.84 72.27 170.539 72.3872 170.17 72.3872H161.982ZM171.476 52.3935H176.249C177.421 52.3935 178.292 52.0754 178.861 51.439C179.43 50.7692 179.715 49.9487 179.715 48.9775C179.715 47.9728 179.43 47.1188 178.861 46.4155C178.325 45.7122 177.454 45.3606 176.249 45.3606H171.476V52.3935Z" fill="url(#paint1_linear_577_30)" fill-opacity="0.77"/>
</g>
<path d="M14.5648 32.9486C12.4372 32.9486 10.612 32.6015 9.08907 31.9072C7.58855 31.2129 6.41278 30.1939 5.56174 28.8502C4.7331 27.5064 4.27399 25.838 4.18441 23.8448C4.16201 22.9265 4.15081 21.9411 4.15081 20.8885C4.15081 19.8359 4.16201 18.8281 4.18441 17.8651C4.27399 15.9167 4.7443 14.2706 5.59534 12.9268C6.44637 11.5607 7.63334 10.5305 9.15625 9.83624C10.6792 9.11957 12.482 8.76124 14.5648 8.76124C16.0429 8.76124 17.4091 8.95161 18.6632 9.33233C19.9174 9.69066 21.0148 10.2282 21.9554 10.9448C22.896 11.6391 23.6239 12.4901 24.139 13.4979C24.6765 14.4833 24.9564 15.6031 24.9788 16.8573C25.0012 17.0589 24.934 17.2268 24.7773 17.3612C24.6429 17.4956 24.4749 17.5628 24.2734 17.5628H19.7382C19.4471 17.5628 19.2231 17.5068 19.0664 17.3948C18.9096 17.2604 18.7752 17.0253 18.6632 16.6893C18.3497 15.5024 17.8346 14.6961 17.1179 14.2706C16.4237 13.8227 15.5614 13.5987 14.5312 13.5987C13.2995 13.5987 12.3252 13.9458 11.6086 14.6401C10.8919 15.312 10.5 16.443 10.4328 18.0331C10.3656 19.8695 10.3656 21.7508 10.4328 23.6768C10.5 25.2669 10.8919 26.4091 11.6086 27.1033C12.3252 27.7752 13.2995 28.1111 14.5312 28.1111C15.5614 28.1111 16.4349 27.8872 17.1515 27.4393C17.8682 26.9913 18.3721 26.1851 18.6632 25.0205C18.7528 24.6846 18.876 24.4606 19.0328 24.3487C19.2119 24.2143 19.4471 24.1471 19.7382 24.1471H24.2734C24.4749 24.1471 24.6429 24.2143 24.7773 24.3487C24.934 24.483 25.0012 24.651 24.9788 24.8526C24.9564 26.1067 24.6765 27.2377 24.139 28.2455C23.6239 29.2309 22.896 30.082 21.9554 30.7986C21.0148 31.4929 19.9174 32.0304 18.6632 32.4111C17.4091 32.7694 16.0429 32.9486 14.5648 32.9486ZM41.9821 32.9486C39.9217 32.9486 38.1301 32.6127 36.6072 31.9408C35.0843 31.2689 33.8973 30.2611 33.0463 28.9174C32.1952 27.5512 31.7249 25.8492 31.6353 23.8112C31.6129 22.8481 31.6017 21.8851 31.6017 20.9221C31.6017 19.9591 31.6129 18.9849 31.6353 17.9995C31.7249 15.9839 32.1952 14.293 33.0463 12.9268C33.9197 11.5383 35.1179 10.4969 36.6408 9.80264C38.1637 9.10838 39.9441 8.76124 41.9821 8.76124C43.9978 8.76124 45.767 9.10838 47.2899 9.80264C48.8352 10.4969 50.0446 11.5383 50.918 12.9268C51.7915 14.293 52.2618 15.9839 52.329 17.9995C52.3738 18.9849 52.3961 19.9591 52.3961 20.9221C52.3961 21.8851 52.3738 22.8481 52.329 23.8112C52.2394 25.8492 51.7691 27.5512 50.918 28.9174C50.067 30.2611 48.88 31.2689 47.3571 31.9408C45.8342 32.6127 44.0426 32.9486 41.9821 32.9486ZM41.9821 28.1111C43.1691 28.1111 44.1321 27.7528 44.8712 27.0361C45.6326 26.3195 46.0358 25.1773 46.0806 23.6096C46.1254 22.6242 46.1477 21.6948 46.1477 20.8213C46.1477 19.9479 46.1254 19.0409 46.0806 18.1003C46.0358 17.0477 45.8342 16.1966 45.4759 15.5471C45.1399 14.8753 44.6696 14.3826 44.0649 14.069C43.4603 13.7555 42.766 13.5987 41.9821 13.5987C41.2207 13.5987 40.5376 13.7555 39.9329 14.069C39.3283 14.3826 38.8467 14.8753 38.4884 15.5471C38.1301 16.1966 37.9285 17.0477 37.8837 18.1003C37.8613 19.0409 37.8501 19.9479 37.8501 20.8213C37.8501 21.6948 37.8613 22.6242 37.8837 23.6096C37.9509 25.1773 38.354 26.3195 39.0931 27.0361C39.8322 27.7528 40.7952 28.1111 41.9821 28.1111ZM60.9932 32.6127C60.7469 32.6127 60.5453 32.5343 60.3885 32.3775C60.2318 32.2207 60.1534 32.0192 60.1534 31.7728V9.93702C60.1534 9.69066 60.2318 9.4891 60.3885 9.33233C60.5453 9.17556 60.7469 9.09718 60.9932 9.09718H64.5541C64.9349 9.09718 65.2036 9.18676 65.3604 9.36593C65.5395 9.5227 65.6515 9.64587 65.6963 9.73546L73.8931 22.669V9.93702C73.8931 9.69066 73.9715 9.4891 74.1283 9.33233C74.2851 9.17556 74.4866 9.09718 74.733 9.09718H78.7642C79.0106 9.09718 79.2121 9.17556 79.3689 9.33233C79.5257 9.4891 79.604 9.69066 79.604 9.93702V31.7728C79.604 31.9968 79.5257 32.1984 79.3689 32.3775C79.2121 32.5343 79.0106 32.6127 78.7642 32.6127H75.1697C74.8114 32.6127 74.5426 32.5231 74.3635 32.3439C74.2067 32.1648 74.1059 32.0416 74.0611 31.9744L65.8643 19.5448V31.7728C65.8643 32.0192 65.7859 32.2207 65.6291 32.3775C65.4724 32.5343 65.2708 32.6127 65.0244 32.6127H60.9932ZM89.0018 32.6127C88.7555 32.6127 88.5539 32.5343 88.3972 32.3775C88.2404 32.2207 88.162 32.0192 88.162 31.7728V9.93702C88.162 9.69066 88.2404 9.4891 88.3972 9.33233C88.5539 9.17556 88.7555 9.09718 89.0018 9.09718H93.3354C93.5818 9.09718 93.7833 9.17556 93.9401 9.33233C94.0969 9.4891 94.1753 9.69066 94.1753 9.93702V18.0331H102.473V9.93702C102.473 9.69066 102.551 9.4891 102.708 9.33233C102.865 9.17556 103.066 9.09718 103.313 9.09718H107.646C107.893 9.09718 108.094 9.17556 108.251 9.33233C108.408 9.4891 108.486 9.69066 108.486 9.93702V31.7728C108.486 32.0192 108.408 32.2207 108.251 32.3775C108.094 32.5343 107.893 32.6127 107.646 32.6127H103.313C103.066 32.6127 102.865 32.5343 102.708 32.3775C102.551 32.2207 102.473 32.0192 102.473 31.7728V23.408H94.1753V31.7728C94.1753 32.0192 94.0969 32.2207 93.9401 32.3775C93.7833 32.5343 93.5818 32.6127 93.3354 32.6127H89.0018ZM117.896 32.6127C117.65 32.6127 117.448 32.5343 117.292 32.3775C117.135 32.2207 117.056 32.0192 117.056 31.7728V9.93702C117.056 9.69066 117.135 9.4891 117.292 9.33233C117.448 9.17556 117.65 9.09718 117.896 9.09718H133.584C133.831 9.09718 134.032 9.17556 134.189 9.33233C134.346 9.4891 134.424 9.69066 134.424 9.93702V13.0948C134.424 13.3412 134.346 13.5427 134.189 13.6995C134.032 13.8563 133.831 13.9347 133.584 13.9347H122.868V18.4698H132.845C133.092 18.4698 133.293 18.5594 133.45 18.7385C133.607 18.8953 133.685 19.0969 133.685 19.3432V22.2659C133.685 22.4898 133.607 22.6914 133.45 22.8705C133.293 23.0273 133.092 23.1057 132.845 23.1057H122.868V27.7752H133.853C134.1 27.7752 134.301 27.8536 134.458 28.0104C134.615 28.1671 134.693 28.3687 134.693 28.615V31.7728C134.693 32.0192 134.615 32.2207 134.458 32.3775C134.301 32.5343 134.1 32.6127 133.853 32.6127H117.896ZM151.651 40.0033C151.047 40.0033 150.498 39.9025 150.005 39.7009C149.513 39.4994 149.166 39.2642 148.964 38.9954C148.762 38.7267 148.774 38.4915 148.998 38.29L149.602 37.7525C149.804 37.5733 149.972 37.5173 150.106 37.5845C150.263 37.6517 150.453 37.7413 150.677 37.8533C150.901 37.9876 151.226 38.0548 151.651 38.0548C151.987 38.0548 152.256 37.954 152.458 37.7525C152.659 37.5509 152.76 37.3158 152.76 37.047C152.76 36.7559 152.659 36.5095 152.458 36.308C152.256 36.1288 151.987 36.0392 151.651 36.0392C151.383 36.0392 151.136 36.0728 150.912 36.14C150.688 36.2296 150.476 36.2744 150.274 36.2744C150.095 36.2968 149.916 36.2408 149.737 36.1064L149.098 35.4345C148.964 35.3002 148.897 35.1546 148.897 34.9978C148.919 34.841 148.998 34.6283 149.132 34.3595L149.804 32.8142C148.102 32.6127 146.635 32.1424 145.403 31.4033C144.194 30.6642 143.253 29.6676 142.581 28.4135C141.909 27.1369 141.529 25.614 141.439 23.8448C141.417 22.9265 141.405 21.9411 141.405 20.8885C141.405 19.8359 141.417 18.8281 141.439 17.8651C141.529 15.9167 141.999 14.2706 142.85 12.9268C143.701 11.5607 144.888 10.5305 146.411 9.83624C147.934 9.11957 149.737 8.76124 151.819 8.76124C153.298 8.76124 154.664 8.95161 155.918 9.33233C157.172 9.69066 158.269 10.2282 159.21 10.9448C160.151 11.6391 160.879 12.4901 161.394 13.4979C161.931 14.4833 162.211 15.6031 162.233 16.8573C162.256 17.0589 162.189 17.2268 162.032 17.3612C161.898 17.4956 161.73 17.5628 161.528 17.5628H156.993C156.702 17.5628 156.478 17.5068 156.321 17.3948C156.164 17.2604 156.03 17.0253 155.918 16.6893C155.604 15.5024 155.089 14.6961 154.373 14.2706C153.678 13.8227 152.816 13.5987 151.786 13.5987C150.554 13.5987 149.58 13.9458 148.863 14.6401C148.147 15.312 147.755 16.443 147.687 18.0331C147.62 19.8695 147.62 21.7508 147.687 23.6768C147.755 25.2669 148.147 26.4091 148.863 27.1033C149.58 27.7752 150.554 28.1111 151.786 28.1111C152.816 28.1111 153.689 27.8872 154.406 27.4393C155.123 26.9913 155.627 26.1851 155.918 25.0205C156.007 24.6846 156.131 24.4606 156.287 24.3487C156.467 24.2143 156.702 24.1471 156.993 24.1471H161.528C161.73 24.1471 161.898 24.2143 162.032 24.3487C162.189 24.483 162.256 24.651 162.233 24.8526C162.211 26.1067 161.931 27.2377 161.394 28.2455C160.879 29.2309 160.151 30.082 159.21 30.7986C158.269 31.4929 157.172 32.0304 155.918 32.4111C154.664 32.7694 153.298 32.9486 151.819 32.9486L151.148 34.2923C151.282 34.2252 151.461 34.1692 151.685 34.1244C151.931 34.102 152.122 34.0908 152.256 34.0908C153.062 34.0908 153.701 34.3595 154.171 34.897C154.664 35.4345 154.91 36.14 154.91 37.0134C154.91 37.8645 154.619 38.5699 154.037 39.1298C153.454 39.7121 152.659 40.0033 151.651 40.0033ZM167.99 32.6127C167.811 32.6127 167.643 32.5455 167.486 32.4111C167.352 32.2543 167.285 32.0864 167.285 31.9072C167.285 31.7952 167.296 31.6944 167.318 31.6049L175.213 10.0378C175.28 9.79145 175.414 9.57869 175.616 9.39952C175.84 9.19796 176.142 9.09718 176.523 9.09718H181.495C181.875 9.09718 182.166 9.19796 182.368 9.39952C182.592 9.57869 182.738 9.79145 182.805 10.0378L190.666 31.6049C190.71 31.6944 190.733 31.7952 190.733 31.9072C190.733 32.0864 190.654 32.2543 190.498 32.4111C190.363 32.5455 190.195 32.6127 189.994 32.6127H185.862C185.526 32.6127 185.268 32.5343 185.089 32.3775C184.932 32.1984 184.832 32.0416 184.787 31.9072L183.477 28.4807H174.507L173.231 31.9072C173.186 32.0416 173.085 32.1984 172.928 32.3775C172.771 32.5343 172.503 32.6127 172.122 32.6127H167.99ZM175.885 23.6432H182.133L178.975 14.7745L175.885 23.6432Z" fill="url(#paint2_linear_577_30)"/>
<defs>
<filter id="filter0_di_577_30" x="0.320786" y="36.7201" width="193.538" height="43.106" filterUnits="userSpaceOnUse" color-interpolation-filters="sRGB">
<feFlood flood-opacity="0" result="BackgroundImageFix"/>
<feColorMatrix in="SourceAlpha" type="matrix" values="0 0 0 0 0 0 0 0 0 0 0 0 0 0 0 0 0 0 127 0" result="hardAlpha"/>
<feOffset dy="2.08681"/>
<feGaussianBlur stdDeviation="1.0434"/>
<feComposite in2="hardAlpha" operator="out"/>
<feColorMatrix type="matrix" values="0 0 0 0 0 0 0 0 0 0 0 0 0 0 0 0 0 0 0.25 0"/>
<feBlend mode="normal" in2="BackgroundImageFix" result="effect1_dropShadow_577_30"/>
<feBlend mode="normal" in="SourceGraphic" in2="effect1_dropShadow_577_30" result="shape"/>
<feColorMatrix in="SourceAlpha" type="matrix" values="0 0 0 0 0 0 0 0 0 0 0 0 0 0 0 0 0 0 127 0" result="hardAlpha"/>
<feOffset dy="0.521702"/>
<feGaussianBlur stdDeviation="1.56511"/>
<feComposite in2="hardAlpha" operator="arithmetic" k2="-1" k3="1"/>
<feColorMatrix type="matrix" values="0 0 0 0 0 0 0 0 0 0 0 0 0 0 0 0 0 0 0.3 0"/>
<feBlend mode="normal" in2="shape" result="effect2_innerShadow_577_30"/>
</filter>
<linearGradient id="paint0_linear_577_30" x1="62.9569" y1="25.3872" x2="96.3946" y2="91.7267" gradientUnits="userSpaceOnUse">
<stop stop-color="#FD5972"/>
<stop offset="0.182292" stop-color="#FFA866"/>
<stop offset="0.359375" stop-color="#EDF06C"/>
<stop offset="0.583333" stop-color="#75F2A7"/>
<stop offset="0.776042" stop-color="#3F82E7"/>
<stop offset="1" stop-color="#BC66FF"/>
</linearGradient>
<linearGradient id="paint1_linear_577_30" x1="-38.1718" y1="-39.7141" x2="-53.3815" y2="32.0796" gradientUnits="userSpaceOnUse">
<stop stop-color="#FFD789"/>
<stop offset="1" stop-color="white" stop-opacity="0"/>
</linearGradient>
<linearGradient id="paint2_linear_577_30" x1="96.8005" y1="0.612671" x2="96.8005" y2="71.4706" gradientUnits="userSpaceOnUse">
<stop stop-color="#505050"/>
<stop offset="1"/>
</linearGradient>
</defs>
</svg>
