<svg width="96" height="73" viewBox="0 0 96 73" fill="none" xmlns="http://www.w3.org/2000/svg">
<path d="M26.0672 21.8684C26.2685 21.8684 26.4424 21.9416 26.5888 22.088C26.7352 22.2344 26.8084 22.4083 26.8084 22.6096V25.5195C26.8084 25.7209 26.7352 25.8947 26.5888 26.0411C26.4424 26.1875 26.2685 26.2607 26.0672 26.2607H13.3569C13.1555 26.2607 12.9817 26.1875 12.8353 26.0411C12.6888 25.8947 12.6156 25.7209 12.6156 25.5195V7.78547C12.6156 7.58415 12.6888 7.41029 12.8353 7.26388C12.9817 7.11746 13.1555 7.04426 13.3569 7.04426H16.9531C17.1544 7.04426 17.3283 7.11746 17.4747 7.26388C17.6211 7.41029 17.6943 7.58415 17.6943 7.78547V21.8684H26.0672ZM36.7334 14.3465C36.6785 14.7858 36.651 15.4904 36.651 16.4603C36.651 17.595 36.6785 18.4277 36.7334 18.9585C36.8066 19.8919 37.1177 20.6605 37.6668 21.2645C38.2158 21.8501 39.0577 22.1429 40.1924 22.1429C41.2355 22.1429 42.0683 21.905 42.6905 21.4292C43.3311 20.935 43.6513 20.1664 43.6513 19.1232H41.3454C41.144 19.1232 40.9702 19.05 40.8238 18.9036C40.6774 18.7572 40.6042 18.5833 40.6042 18.382V15.4721C40.6042 15.2707 40.6774 15.0969 40.8238 14.9505C40.9702 14.8041 41.144 14.7309 41.3454 14.7309H47.9888C48.1901 14.7309 48.3639 14.8041 48.5104 14.9505C48.6568 15.0969 48.73 15.2707 48.73 15.4721V18.9859C48.73 20.5049 48.3548 21.841 47.6044 22.9939C46.8541 24.1286 45.8292 25.0071 44.5298 25.6293C43.2487 26.2333 41.8029 26.5353 40.1924 26.5353C38.4903 26.5353 37.0079 26.2058 35.7451 25.547C34.4823 24.8698 33.5032 23.9731 32.8077 22.8567C32.1123 21.722 31.728 20.4683 31.6548 19.0957C31.6182 18.2173 31.5999 17.4944 31.5999 16.927C31.5999 16.2499 31.6182 15.3439 31.6548 14.2093C31.7097 12.8367 32.0848 11.5922 32.7803 10.4758C33.4758 9.34109 34.4549 8.44432 35.7177 7.78547C36.9988 7.10831 38.4903 6.76974 40.1924 6.76974C41.8212 6.76974 43.2579 7.07171 44.5024 7.67566C45.7651 8.2796 46.7443 9.03911 47.4397 9.95418C48.1535 10.8693 48.5378 11.7569 48.5927 12.617C48.611 12.7818 48.5561 12.9282 48.428 13.0563C48.2999 13.1661 48.1535 13.221 47.9888 13.221H44.3376C44.0997 13.221 43.9076 13.1661 43.7611 13.0563C43.633 12.9282 43.4592 12.736 43.2396 12.4798C42.9101 12.0771 42.5166 11.7569 42.0591 11.519C41.6199 11.281 40.9976 11.1621 40.1924 11.1621C38.1243 11.1621 36.9713 12.2236 36.7334 14.3465ZM55.5141 26.2607C55.3128 26.2607 55.1389 26.1875 54.9925 26.0411C54.8461 25.8947 54.7729 25.7209 54.7729 25.5195V7.78547C54.7729 7.58415 54.8461 7.41029 54.9925 7.26388C55.1389 7.11746 55.3128 7.04426 55.5141 7.04426H64.3537C65.9093 7.04426 67.1721 7.31878 68.1421 7.86782C69.112 8.41686 69.8075 9.12147 70.2284 9.98163C70.6677 10.8235 70.8873 11.7477 70.8873 12.7543C70.8873 13.6694 70.7226 14.4106 70.3931 14.9779C70.082 15.527 69.7343 15.9479 69.3499 16.2407C70.0454 16.7166 70.5395 17.2839 70.8324 17.9428C71.1252 18.5833 71.2716 19.3703 71.2716 20.3036C71.2716 22.0057 70.7592 23.424 69.7343 24.5587C68.7094 25.6934 67.108 26.2607 64.9302 26.2607H55.5141ZM59.8515 11.2993V14.4289H64.1066C64.6556 14.4289 65.0674 14.2916 65.3419 14.0171C65.6348 13.7426 65.7812 13.3582 65.7812 12.8641C65.7812 12.37 65.6348 11.9856 65.3419 11.7111C65.0674 11.4366 64.6556 11.2993 64.1066 11.2993H59.8515ZM64.3811 22.0057C64.9302 22.0057 65.3694 21.8501 65.6988 21.539C66.0282 21.2279 66.193 20.8252 66.193 20.3311C66.193 19.8369 66.0282 19.4343 65.6988 19.1232C65.3694 18.8121 64.9302 18.6565 64.3811 18.6565H59.8515V22.0057H64.3811ZM91.5838 7.04426C91.7851 7.04426 91.959 7.11746 92.1054 7.26388C92.2518 7.41029 92.325 7.58415 92.325 7.78547V10.6954C92.325 10.8967 92.2518 11.0706 92.1054 11.217C91.959 11.3634 91.7851 11.4366 91.5838 11.4366H86.7522V25.5195C86.7522 25.7209 86.679 25.8947 86.5326 26.0411C86.3862 26.1875 86.2123 26.2607 86.011 26.2607H82.4148C82.2135 26.2607 82.0396 26.1875 81.8932 26.0411C81.7468 25.8947 81.6736 25.7209 81.6736 25.5195V11.4366H76.842C76.6407 11.4366 76.4668 11.3634 76.3204 11.217C76.174 11.0706 76.1008 10.8967 76.1008 10.6954V7.78547C76.1008 7.58415 76.174 7.41029 76.3204 7.26388C76.4668 7.11746 76.6407 7.04426 76.842 7.04426H91.5838Z" fill="white"/>
<path d="M21.7658 36.2377C23.7147 36.2377 25.3969 36.607 26.8124 37.3455C28.2278 38.084 29.3151 39.0892 30.0741 40.3611C30.8537 41.6125 31.2845 43.0177 31.3665 44.5768C31.4076 45.1512 31.4281 46.0743 31.4281 47.3462C31.4281 48.5976 31.4076 49.5002 31.3665 50.0541C31.2434 52.2902 30.4844 54.1467 29.0894 55.6237L31.5204 59.1317C31.5819 59.2548 31.6127 59.3471 31.6127 59.4086V59.5009C31.6127 59.6651 31.5512 59.7984 31.4281 59.901C31.305 60.0241 31.1614 60.0856 30.9973 60.0856H26.6585C26.3303 60.0856 26.0636 60.0138 25.8584 59.8702C25.6738 59.7471 25.5097 59.583 25.3661 59.3778L24.5045 58.0854C23.5403 58.2906 22.6274 58.3932 21.7658 58.3932C19.817 58.3932 18.1348 58.0239 16.7193 57.2854C15.3038 56.5469 14.2063 55.5519 13.4268 54.3006C12.6678 53.0287 12.2472 51.6132 12.1652 50.0541C12.1241 48.9463 12.1036 48.0437 12.1036 47.3462C12.1036 46.6487 12.1241 45.7256 12.1652 44.5768C12.2472 43.0177 12.6678 41.6125 13.4268 40.3611C14.2063 39.0892 15.3038 38.084 16.7193 37.3455C18.1348 36.607 19.817 36.2377 21.7658 36.2377ZM25.6738 44.7306C25.5712 43.6434 25.1917 42.7818 24.5353 42.1458C23.8993 41.4894 22.9762 41.1612 21.7658 41.1612C20.5555 41.1612 19.6221 41.4894 18.9656 42.1458C18.3297 42.7818 17.9604 43.6434 17.8579 44.7306C17.7963 45.4076 17.7656 46.259 17.7656 47.2847C17.7656 48.2899 17.7963 49.1617 17.8579 49.9002C17.9604 50.9875 18.3297 51.8594 18.9656 52.5158C19.6221 53.1518 20.5555 53.4697 21.7658 53.4697C22.9762 53.4697 23.8993 53.1518 24.5353 52.5158C25.1917 51.8594 25.5712 50.9875 25.6738 49.9002C25.7354 49.1617 25.7661 48.2899 25.7661 47.2847C25.7661 46.259 25.7354 45.4076 25.6738 44.7306ZM38.5601 58.0854C38.3344 58.0854 38.1395 58.0034 37.9754 57.8393C37.8113 57.6752 37.7292 57.4803 37.7292 57.2546V37.3763C37.7292 37.1506 37.8113 36.9557 37.9754 36.7916C38.1395 36.6275 38.3344 36.5454 38.5601 36.5454H42.5911C42.8168 36.5454 43.0117 36.6275 43.1758 36.7916C43.3399 36.9557 43.422 37.1506 43.422 37.3763V57.2546C43.422 57.4803 43.3399 57.6752 43.1758 57.8393C43.0117 58.0034 42.8168 58.0854 42.5911 58.0854H38.5601ZM69.9837 56.9469C70.0658 57.152 70.1068 57.3059 70.1068 57.4085C70.1068 57.5931 70.035 57.7572 69.8914 57.9008C69.7683 58.0239 69.6145 58.0854 69.4299 58.0854H65.5526C65.2039 58.0854 64.927 58.0136 64.7218 57.87C64.5372 57.7059 64.4141 57.5213 64.3526 57.3162L63.491 54.7621H55.3058L54.4442 57.3162C54.3826 57.5213 54.2493 57.7059 54.0441 57.87C53.8595 58.0136 53.5928 58.0854 53.2441 58.0854H49.3669C49.1822 58.0854 49.0181 58.0239 48.8745 57.9008C48.7514 57.7572 48.6899 57.5931 48.6899 57.4085C48.6899 57.3059 48.7309 57.152 48.813 56.9469L55.5212 37.5609C55.6237 37.2737 55.7878 37.0378 56.0135 36.8532C56.2392 36.648 56.5366 36.5454 56.9059 36.5454H61.8908C62.2601 36.5454 62.5576 36.648 62.7832 36.8532C63.0089 37.0378 63.173 37.2737 63.2756 37.5609L69.9837 56.9469ZM61.8908 49.9926L59.3984 42.6074L56.9059 49.9926H61.8908Z" fill="white"/>
<g filter="url(#filter0_d_226_2433)">
<path d="M79.8001 57.124C79.4993 57.124 79.2396 57.0146 79.0208 56.7959C78.802 56.5771 78.6927 56.3173 78.6927 56.0165V49.4129H72.3351C72.0343 49.4129 71.7745 49.3035 71.5558 49.0847C71.337 48.866 71.2276 48.6062 71.2276 48.3054V43.8346C71.2276 43.5338 71.337 43.274 71.5558 43.0553C71.7745 42.8365 72.0343 42.7271 72.3351 42.7271H78.6927V36.3285C78.6927 36.0278 78.802 35.768 79.0208 35.5492C79.2396 35.3305 79.4993 35.2211 79.8001 35.2211H84.8042C85.1049 35.2211 85.3647 35.3305 85.5835 35.5492C85.8022 35.768 85.9116 36.0278 85.9116 36.3285V42.7271H92.1872C92.4879 42.7271 92.7477 42.8365 92.9665 43.0553C93.1852 43.274 93.2946 43.5338 93.2946 43.8346V48.3054C93.2946 48.6062 93.1852 48.866 92.9665 49.0847C92.7477 49.3035 92.4879 49.4129 92.1872 49.4129H85.9116V56.0165C85.9116 56.3173 85.8022 56.5771 85.5835 56.7959C85.3647 57.0146 85.1049 57.124 84.8042 57.124H79.8001Z" fill="url(#paint0_linear_226_2433)"/>
<path d="M79.8001 57.124C79.4993 57.124 79.2396 57.0146 79.0208 56.7959C78.802 56.5771 78.6927 56.3173 78.6927 56.0165V49.4129H72.3351C72.0343 49.4129 71.7745 49.3035 71.5558 49.0847C71.337 48.866 71.2276 48.6062 71.2276 48.3054V43.8346C71.2276 43.5338 71.337 43.274 71.5558 43.0553C71.7745 42.8365 72.0343 42.7271 72.3351 42.7271H78.6927V36.3285C78.6927 36.0278 78.802 35.768 79.0208 35.5492C79.2396 35.3305 79.4993 35.2211 79.8001 35.2211H84.8042C85.1049 35.2211 85.3647 35.3305 85.5835 35.5492C85.8022 35.768 85.9116 36.0278 85.9116 36.3285V42.7271H92.1872C92.4879 42.7271 92.7477 42.8365 92.9665 43.0553C93.1852 43.274 93.2946 43.5338 93.2946 43.8346V48.3054C93.2946 48.6062 93.1852 48.866 92.9665 49.0847C92.7477 49.3035 92.4879 49.4129 92.1872 49.4129H85.9116V56.0165C85.9116 56.3173 85.8022 56.5771 85.5835 56.7959C85.3647 57.0146 85.1049 57.124 84.8042 57.124H79.8001Z" fill="url(#paint1_linear_226_2433)" fill-opacity="0.77"/>
</g>
<path d="M3.34375 29.0854V69.9511H83.6659" stroke="white" stroke-width="5.15989" stroke-linecap="round" stroke-linejoin="round"/>
<defs>
<filter id="filter0_d_226_2433" x="70.5827" y="35.2212" width="23.3569" height="23.1928" filterUnits="userSpaceOnUse" color-interpolation-filters="sRGB">
<feFlood flood-opacity="0" result="BackgroundImageFix"/>
<feColorMatrix in="SourceAlpha" type="matrix" values="0 0 0 0 0 0 0 0 0 0 0 0 0 0 0 0 0 0 127 0" result="hardAlpha"/>
<feOffset dy="0.644987"/>
<feGaussianBlur stdDeviation="0.322493"/>
<feComposite in2="hardAlpha" operator="out"/>
<feColorMatrix type="matrix" values="0 0 0 0 0 0 0 0 0 0 0 0 0 0 0 0 0 0 0.13 0"/>
<feBlend mode="normal" in2="BackgroundImageFix" result="effect1_dropShadow_226_2433"/>
<feBlend mode="normal" in="SourceGraphic" in2="effect1_dropShadow_226_2433" result="shape"/>
</filter>
<linearGradient id="paint0_linear_226_2433" x1="87.4321" y1="55.5937" x2="63.4124" y2="26.0232" gradientUnits="userSpaceOnUse">
<stop stop-color="#BB3FE7"/>
<stop offset="0.263164" stop-color="#FD5972"/>
<stop offset="0.543809" stop-color="#FFA866"/>
</linearGradient>
<linearGradient id="paint1_linear_226_2433" x1="66.8945" y1="12.978" x2="79.269" y2="42.9888" gradientUnits="userSpaceOnUse">
<stop stop-color="#FFD789"/>
<stop offset="1" stop-color="white" stop-opacity="0"/>
</linearGradient>
</defs>
</svg>
