<svg width="44" height="16" viewBox="0 0 44 16" fill="none" xmlns="http://www.w3.org/2000/svg">
<path d="M42.8838 8.97944C43.2738 8.58953 43.2738 7.95734 42.8838 7.56743L36.5298 1.21337C36.1398 0.823456 35.5077 0.823458 35.1177 1.21338C34.7278 1.60329 34.7278 2.23548 35.1177 2.62539L40.7658 8.27344L35.1178 13.9215C34.7279 14.3114 34.7279 14.9436 35.1178 15.3335C35.5077 15.7234 36.1399 15.7234 36.5298 15.3335L42.8838 8.97944ZM21.5568 8.27349L21.5568 7.27504H21.5568L21.5568 8.27349ZM1.37646 7.27515C0.825033 7.27515 0.378016 7.72217 0.378019 8.2736C0.378022 8.82503 0.825044 9.27204 1.37647 9.27204L1.37646 7.27515ZM42.1778 7.27499L21.5568 7.27504L21.5568 9.27193L42.1778 9.27188L42.1778 7.27499ZM21.5568 7.27504L1.37646 7.27515L1.37647 9.27204L21.5568 9.27193L21.5568 7.27504Z" fill="#222222"/>
</svg>
