<svg width="27" height="22" viewBox="0 0 27 22" fill="none" xmlns="http://www.w3.org/2000/svg">
<path d="M11.8148 14.7452L17.2331 11.5121C17.7491 11.2042 17.7491 10.4344 17.2331 10.1264L11.8148 6.89327C11.2988 6.58535 10.6537 6.97025 10.6537 7.58609L10.6537 14.0524C10.6537 14.6683 11.2988 15.0532 11.8148 14.7452Z" fill="#C342DB"/>
<path fill-rule="evenodd" clip-rule="evenodd" d="M13.2339 0.152588C10.3647 0.152588 7.31406 0.354656 5.14704 0.536409C2.7759 0.735283 0.870317 2.63182 0.63846 5.1007C0.483477 6.751 0.33313 8.85392 0.33313 10.8193C0.33313 12.7846 0.483477 14.8875 0.63846 16.5378C0.870317 19.0067 2.7759 20.9032 5.14704 21.1021C7.31406 21.2839 10.3647 21.4859 13.2339 21.4859C16.1031 21.4859 19.1537 21.2839 21.3207 21.1021C23.6918 20.9032 25.5974 19.0067 25.8293 16.5378C25.9843 14.8875 26.1346 12.7846 26.1346 10.8193C26.1346 8.85392 25.9843 6.751 25.8293 5.1007C25.5974 2.63182 23.6918 0.735282 21.3207 0.536409C19.1537 0.354655 16.1031 0.152588 13.2339 0.152588ZM5.35574 3.19434C7.49348 3.01504 10.4655 2.81925 13.2339 2.81925C16.0023 2.81925 18.9743 3.01504 21.112 3.19434C22.2593 3.29056 23.152 4.19591 23.2612 5.35832C23.4125 6.96976 23.5545 8.97675 23.5545 10.8193C23.5545 12.6618 23.4125 14.6688 23.2612 16.2802C23.152 17.4426 22.2593 18.3479 21.112 18.4442C18.9743 18.6235 16.0023 18.8193 13.2339 18.8193C10.4655 18.8193 7.49348 18.6235 5.35574 18.4442C4.20846 18.3479 3.3157 17.4426 3.20654 16.2802C3.05521 14.6687 2.91328 12.6618 2.91328 10.8193C2.91328 8.97675 3.05521 6.96976 3.20654 5.35832C3.3157 4.19591 4.20846 3.29056 5.35574 3.19434Z" fill="#C342DB"/>
</svg>
