<svg width="23" height="24" viewBox="0 0 23 24" fill="none" xmlns="http://www.w3.org/2000/svg">
<path fill-rule="evenodd" clip-rule="evenodd" d="M6.83076 11.8193C6.83076 9.06831 9.05813 6.8382 11.8057 6.8382C14.5533 6.8382 16.7807 9.06831 16.7807 11.8193C16.7807 14.5703 14.5533 16.8004 11.8057 16.8004C9.05813 16.8004 6.83076 14.5703 6.83076 11.8193ZM11.8057 9.32875C10.4319 9.32875 9.31824 10.4438 9.31824 11.8193C9.31824 13.1948 10.4319 14.3099 11.8057 14.3099C13.1795 14.3099 14.2932 13.1948 14.2932 11.8193C14.2932 10.4438 13.1795 9.32875 11.8057 9.32875Z" fill="#C342DB"/>
<path d="M17.4026 7.46083C18.0895 7.46083 18.6463 6.9033 18.6463 6.21556C18.6463 5.52781 18.0895 4.97028 17.4026 4.97028C16.7157 4.97028 16.1588 5.52781 16.1588 6.21556C16.1588 6.9033 16.7157 7.46083 17.4026 7.46083Z" fill="#C342DB"/>
<path fill-rule="evenodd" clip-rule="evenodd" d="M0.612061 6.8382C0.612061 3.39946 3.39627 0.611816 6.83076 0.611816H16.7807C20.2152 0.611816 22.9994 3.39946 22.9994 6.8382V16.8004C22.9994 20.2391 20.2152 23.0268 16.7807 23.0268H6.83076C3.39627 23.0268 0.612061 20.2391 0.612061 16.8004V6.8382ZM6.83076 3.10237C4.77007 3.10237 3.09954 4.77496 3.09954 6.8382V16.8004C3.09954 18.8636 4.77007 20.5362 6.83076 20.5362H16.7807C18.8414 20.5362 20.5119 18.8636 20.5119 16.8004V6.8382C20.5119 4.77496 18.8414 3.10237 16.7807 3.10237H6.83076Z" fill="#C342DB"/>
</svg>
