<svg width="43" height="43" viewBox="0 0 43 43" fill="none" xmlns="http://www.w3.org/2000/svg">
<path d="M25.0053 21.3936L19.4928 18.2436V24.5436L25.0053 21.3936Z" fill="#636363"/>
<path fill-rule="evenodd" clip-rule="evenodd" d="M0.592773 21.3936C0.592773 9.79558 9.99479 0.393555 21.5928 0.393555C33.1908 0.393555 42.5928 9.79558 42.5928 21.3936C42.5928 32.9915 33.1908 42.3936 21.5928 42.3936C9.99479 42.3936 0.592773 32.9915 0.592773 21.3936ZM29.7303 14.4373C30.649 14.6998 31.3053 15.3561 31.5678 16.2748C32.0928 17.9811 32.0928 21.3936 32.0928 21.3936C32.0928 21.3936 32.0928 24.8061 31.699 26.5123C31.4365 27.4311 30.7803 28.0873 29.8615 28.3498C28.1553 28.7436 21.5928 28.7436 21.5928 28.7436C21.5928 28.7436 14.899 28.7436 13.324 28.3498C12.4053 28.0873 11.749 27.4311 11.4865 26.5123C11.0928 24.8061 11.0928 21.3936 11.0928 21.3936C11.0928 21.3936 11.0928 17.9811 11.3553 16.2748C11.6178 15.3561 12.274 14.6998 13.1928 14.4373C14.899 14.0436 21.4615 14.0436 21.4615 14.0436C21.4615 14.0436 28.1553 14.0436 29.7303 14.4373Z" fill="#636363"/>
</svg>
