<svg width="146" height="164" viewBox="0 0 146 164" fill="none" xmlns="http://www.w3.org/2000/svg">
<path d="M6.72004 163.1C5.16842 163.1 3.77196 162.557 2.53066 161.471C1.28937 160.23 0.668719 158.756 0.668719 157.049V6.23151C0.668719 4.52472 1.28937 3.12826 2.53066 2.04213C3.77196 0.800829 5.16842 0.18018 6.72004 0.18018H80.9651C95.0848 0.18018 106.644 2.04212 115.644 5.76601C124.643 9.48991 131.315 14.843 135.66 21.8253C140.004 28.8076 142.177 37.4191 142.177 47.6598C142.177 52.9353 141.09 57.6677 138.918 61.8571C136.901 65.8913 134.418 69.3049 131.47 72.0978C128.522 74.7356 125.729 76.6751 123.092 77.9164C129.143 80.5541 134.418 85.0538 138.918 91.4155C143.418 97.622 145.668 104.759 145.668 112.828C145.668 123.689 143.185 132.844 138.22 140.292C133.41 147.739 126.35 153.403 117.04 157.282C107.886 161.161 96.6365 163.1 83.2925 163.1H6.72004ZM50.7085 127.956H77.9394C83.2149 127.956 87.094 126.405 89.5766 123.301C92.0592 120.043 93.3005 116.474 93.3005 112.595C93.3005 108.561 91.9816 105.07 89.3438 102.122C86.7061 99.0184 82.9046 97.4668 77.9394 97.4668H50.7085V127.956ZM50.7085 63.2536H75.612C80.5772 63.2536 84.2235 61.8571 86.5509 59.0642C88.8783 56.2713 90.0421 53.0129 90.0421 49.289C90.0421 45.5651 88.8783 42.3067 86.5509 39.5138C84.2235 36.7208 80.5772 35.3244 75.612 35.3244H50.7085V63.2536Z" fill="#101010"/>
</svg>
